<svg xmlns="http://www.w3.org/2000/svg" viewBox="0 0 114.39 369.5"><defs><style>.cls-1,.cls-2,.cls-3{fill:none;stroke-miterlimit:10;}.cls-1{stroke:red;}.cls-2{stroke:blue;}.cls-3{stroke:#000;stroke-width:0.5px;}</style></defs><g id="レイヤー_2" data-name="レイヤー 2"><g id="レイヤー_4" data-name="レイヤー 4"><g id="レイヤー_3" data-name="レイヤー 3"><rect class="cls-1" x="0.5" y="0.5" width="113.39" height="368.5" rx="8.45"/><circle class="cls-2" cx="56.56" cy="26.94" r="9.73"/><path class="cls-3" d="M53.73,123.28c.93-.15,1.43-.36,1.27-1.48-.37-2.64-.64-5.3-.92-8-.08-.72-.25-1-1.11-1-1.17.12-1.87.39-1.38,1.5.34,2.73.68,5.22.95,7.73C52.63,122.88,52.65,123.46,53.73,123.28Z"/><path class="cls-3" d="M52.2,110.41c.69-.18,1.68,0,1.34-1-.33-2.49-.67-4.74-.89-7-.09-.89-.47-1-1.18-.81s-1.39,0-1.2,1.19c.36,2.19.56,4.41.75,6.62C51.09,110.25,51.28,110.65,52.2,110.41Z"/><path class="cls-3" d="M49.76,98.3c.14,1.24.88.75,1.5.77.84,0,1-.36.9-1.14a45,45,0,0,1-.67-6.63c.06-2.53-1.29-4-3.37-5.49C48.71,90.19,49.29,94.24,49.76,98.3Z"/><path class="cls-3" d="M63.15,100.23c-1.18-.18-1.6.3-1.38,1.61.35,2.13.57,4.29.79,6.45.09.84.35,1,1,.39,1.35-1.35,2.68-2.73,4-4.07.48-.48.41-.8-.08-1.21-1-.88-2-1.8-3-2.72A1.39,1.39,0,0,0,63.15,100.23Z"/><path class="cls-3" d="M54.71,98c.07.7.54.6,1,.54l5.65-.69L54,91.12C54.28,93.71,54.5,95.83,54.71,98Z"/><path class="cls-3" d="M56,108.84c0,.43-.07,1.13.74,1.06s1.81-.2,2.71-.3c.65-.08.63-.51.56-1-.21-1.7-.37-3.42-.6-5.12-.41-3.07-.45-3.06-3.54-2.39-.62.14-.94.31-.7,1C55.46,104.32,55.71,106.58,56,108.84Z"/><path class="cls-3" d="M50.68,110.79l0,0h0c-.28-2.65-.5-5.31-.86-8-.17-1.25.29-1.58,1.42-1.66s1.82-.22,1.92,1.25c.18,2.36.52,4.72.87,7.06.14.93-.11,1.34-1,1.34s-1.56.35-2.32,0v0h0c.55.54.4,1.24.4,1.9h0v0c3.29-.67,3.27-.65,3.6,2.72.22,2.27.46,4.53.79,6.78.15,1-.06,1.35-1.09,1.44-2.16.19-2.2.24-2.38-1.93-.26-3-1-6-.92-9h0s0,0,0,0c-1.69.21-1.7,1.29-1.51,2.66.46,3.15.81,6.32,1.19,9.48q1.34,11.3,2.66,22.6c.06.51-.08,1.18.87,1s.8-.61.73-1.2c-.05-.35-.07-.71-.11-1.06-.67-5.67-1.37-11.35-2-17-.13-1.18-.91-2.7-.13-3.49s2.4-.39,3.62-.62c1-.2,1.07.24,1.14,1,.18,2,.43,4,.59,6,.11,1.32.71,1.67,2,1.5,5.36-.72,10.73-1.36,16.1-2,.66-.08,1.37,0,1.2-1s-.87-.61-1.39-.55c-4.92.59-9.84,1.17-14.75,1.83-1.13.15-1.67-.08-1.71-1.32a40.57,40.57,0,0,0-.42-4.53c-.17-1.1.22-1.33,1.24-1.45,5.07-.6,10.13-1.29,15.19-2,.5-.07,1-.07.92-.86s-.55-.83-1.16-.75c-1.3.19-2.6.34-3.9.55-.84.14-1.16-.16-1.26-1q-.73-6.25-1.58-12.49a2.32,2.32,0,0,1,.72-2.32c.53-.43.56-.78,0-1.32-.72-.7-.91,0-1.26.31L63.85,109c-.36.36-.77.78-1.31.62s-.38-.77-.43-1.18q-.4-3-.7-6c-.24-2.38-.22-2.38,2.14-2.79.06,0,.1-.12.16-.2a2.21,2.21,0,0,0-2.65-1.1c-1.83.35-3.71.46-5.56.72-.83.12-1.18-.12-1.26-1-.2-2.31-.56-4.62-.69-6.94a3.18,3.18,0,0,0-1.92-2.7c.34,3.31.55,6.43,1,9.51.26,1.76-.9,1.47-1.86,1.7-1.26.3-1.39-.47-1.51-1.4-.51-4.22-1.08-8.43-1.58-12.64a3.28,3.28,0,0,0-2-2.76c1.07,8.88,2.17,17.66,3.15,26.45C49,110.58,49.34,111.16,50.68,110.79Zm12.77.36a2.9,2.9,0,0,0,1.61-1.06c.58-.59,1.19-1.16,2-1.93.57,4.45,1.09,8.59,1.64,12.72.1.7-.12,1-.84,1.06s-1.5.17-2.25.27c-1.9.27-1.88.27-2.08-1.7-.28-2.66-.6-5.31-.92-8C62.5,111.83,62.5,111.27,63.45,111.15ZM61.22,115c.29,2.11.47,4.22.77,6.33.15,1-.08,1.5-1.19,1.49a22,22,0,0,0-2.61.33c-.94.4-1-.36-1.12-1.37-.28-2.87-.61-5.73-1-8.58-.12-.89.13-1.11.95-1.25C60.7,111.31,60.71,111.28,61.22,115Zm-6.52-13.4c.61-2,2.48-.71,3.67-1.28.65-.32,1.18-.1,1.27.87.22,2.51.57,5,.91,7.8.16.58-.1.93-1.07,1-3.8.48-3.78.52-4.18-3.34-.13-1.2-.31-2.4-.46-3.6A3.92,3.92,0,0,1,54.7,101.61Z"/><path class="cls-3" d="M61.06,84c-1.17-.09-1.21.38-1.11,1.28.21,2.06.37,4.12.53,6.17a2,2,0,0,0,.46,1.4c1.35,1.26,2.72,2.51,4.36,4-.43-3.59-.83-6.73-1.17-9.88C63.82,84.17,63.85,84.24,61.06,84Z"/><path class="cls-3" d="M59.94,112.06a11.85,11.85,0,0,1-2,.27c-1.4-.09-1.53.6-1.34,1.77.31,1.94.47,3.9.73,5.86.39,2.93.4,2.91,3.3,2.46.67-.11,1-.29.87-1-.37-2.81-.69-5.62-1-8.43C60.46,112.31,60.28,112,59.94,112.06Z"/><path class="cls-3" d="M63.79,118.85c.32,3.15.29,3.09,3.37,2.73,1-.12,1.09-.51,1-1.36-.49-3.55-.91-7.11-1.39-10.93-1.31.86-2.06,2.1-3.44,2.48-.54.15-.24.69-.2,1.06C63.33,114.84,63.59,116.84,63.79,118.85Z"/><path class="cls-3" d="M56.66,268.89c-.15.26,2.05,2.51,2.49,2.55.64-.08,1-.55.66-1.12A8.2,8.2,0,0,0,58,268.16C57.27,267.62,56.93,268.42,56.66,268.89Z"/><path class="cls-3" d="M61.6,255.89q-7.51-4.84-15-9.73c-.63-.41-1-.43-1.44.25-1.18,1.7-2.4,3.38-3.68,5-.6.76-.46,1.13.32,1.63q7.24,4.71,14.42,9.51a1.07,1.07,0,0,0,1.55-.08c1.56-1.37,3.17-2.67,4.75-4,.26-.22.61-.39.67-.82A6.62,6.62,0,0,0,61.6,255.89Z"/><path class="cls-3" d="M69,107.69c.47,3.35.86,6.72,1.34,10.07s.5,3.23,3.79,2.93c1.31-.12,1.89-.48,1.51-1.66-.32-3.14-.63-6.1-.94-9.07,0-.4,0-.81-.55-.95-1.35-.35-2.12-1.49-3.14-2.31-.37-.3-.61-1.1-1.28-.7A1.56,1.56,0,0,0,69,107.69Z"/><path class="cls-3" d="M58.5,262.7c.6-.58,1.23-1.12,1.87-1.65C59.73,261.58,59.1,262.12,58.5,262.7Z"/><path class="cls-3" d="M80.82,277.07c3.9-3.14,7.75-6.33,11.69-9.42,1-.77.57-1.19.06-1.9s-1-.83-1.77-.16a107.15,107.15,0,0,1-9,7.21L76.09,277C78.64,278.82,78.65,278.83,80.82,277.07Z"/><path class="cls-3" d="M45,70.43c-.58.09-.93.16-.84.89.25,2,.43,3.92.62,5.88a2.15,2.15,0,0,0,.82,1.39c2.61,2.47,5.19,5,7.8,7.43,1.35,1.27,2.74,2.49,4.42,4-.18-2.42-.33-4.41-.49-6.4,0-.37-.18-.71-.65-.68-1,0-1.55-.65-2.17-1.23l-6.39-6.06c-1.47-1.4-1.52-1.94,0-3.32a2.94,2.94,0,0,0,1-2.92c-.56-4.21-1-8.44-1.41-12.66a6.85,6.85,0,0,1,0-.79H46c.41,3.9.8,7.79,1.21,11.68C47.42,69.93,47.33,70.09,45,70.43Z"/><path class="cls-3" d="M77.58,273.24c-.69.32-.85-.54-1.18-.9-3.63-4.16-2-4.09-6.71-.23a3.07,3.07,0,0,0-1,2.12,2,2,0,0,0,1.24,1.9c2.63,1.42,5.24,2.85,7.81,4.37a1.79,1.79,0,0,0,2.39-.18c6.45-5,12.71-10.24,19-15.48v-2.19c-.9.75-1.81,1.49-2.7,2.25s-1.34.76-2.06-.19c-2.2-2.89-4.51-5.71-6.75-8.58-.78-1-1.64-1.35-2.71-.51-.24.19-.93.45-.41.87.3.24.39,1.16,1.08.66s.78,0,1.06.37c.41.49,0,.72-.32,1A19.71,19.71,0,0,1,84.4,260c-1.23.83-1.45,1.65-.33,2.79.81.82,1.43,1.83,2.21,2.69s-.06,1.2-.53,1.62-.92,1-1.57.11c-.77-1.07-1.7-2-2.47-3.08s-1.48-1-2.36-.19a18.4,18.4,0,0,1-2.12,1.73c-1.07.74-1.22,1.47-.31,2.47s1.51,1.89,2.25,2.86c.17.22.58.51.33.75A7.65,7.65,0,0,1,77.58,273.24Zm-5.3,2.36c-.62-.52-1.52-.68-1.94-1.23,0-.68,2.47-3.07,2.88-3a1.14,1.14,0,0,1,.57.42,4.25,4.25,0,0,1,.94,1.16c.25.65,1.7.93.83,1.84S73.77,276.86,72.28,275.6Zm13.91-12.76c-.25-.5-1.18-.86-.71-1.47a14.94,14.94,0,0,1,2.17-1.93c.52-.07.64.25.82.47a20,20,0,0,0,1.51,1.9c.88.84.6,1.34-.23,2-1.69,1.36-1.66,1.4-3-.27A3.81,3.81,0,0,1,86.19,262.84Zm-7.25,5.28c-.74-.75-.59-1.19.17-1.89,1-.92,1.64-1,2.39.23a27.84,27.84,0,0,0,2,2.48c-.76.55-1.41,1.09-2.11,1.53s-.75-.31-1-.59C79.86,269.32,79.47,268.65,78.94,268.12Zm4.2,3.12a83,83,0,0,0,7.49-6.13c1-.88,1.47-.77,2.19.24,1.38,1.91,1.49,1.36-.29,2.83-3.43,2.81-6.89,5.6-10.34,8.4l-.71.56c-2.9,2.27-2.9,2.27-6.24,0C78,275.08,80.53,273.13,83.14,271.24Z"/><path class="cls-3" d="M43,244c-2.3-1.37-4.61-2.72-6.9-4.1-.59-.36-.7.13-.89.43-1.17,1.77-2.31,3.56-3.5,5.32-.39.58-.38.92.27,1.3,2,1.16,3.9,2.34,5.8,3.58.67.43,1,.32,1.46-.31,1.21-1.74,2.48-3.44,3.73-5.16l.47-.66A2.66,2.66,0,0,0,43,244Z"/><path class="cls-3" d="M14.59,112.43a2.68,2.68,0,0,0-.55.08v2a.67.67,0,0,0,.45.13c.44,0,1.24.06.94-1C15.24,113.29,15.76,112.33,14.59,112.43Z"/><path class="cls-3" d="M20.9,246.43A3.09,3.09,0,0,0,23.14,248c.6.16.81-.64,1-1.12.13-.29-1.77-1.7-2.38-1.72C21.23,245.31,20.77,246.11,20.9,246.43Z"/><path class="cls-3" d="M70.51,253.23c-.46,0-.57-.1-.62-.07l-3,2.33c-1.64,1.3-1.65,1.31-3-.33A5.47,5.47,0,0,0,62.5,254c-4.92-3.19-9.83-6.4-14.78-9.55-.91-.58-1-1-.28-1.8,1.35-1.5,2.61-3.1,3.85-4.69.26-.34,1.1-.65.32-1.31s-1.1-.29-1.58.32c-1.35,1.71-2.77,3.36-4.12,5.06-.44.55-.79.78-1.5.35q-5.23-3.21-10.53-6.32c-.73-.43-.87-.77-.27-1.48,1.46-1.74,2.84-3.55,4.23-5.36.25-.33.92-.65.19-1.21s-1-.4-1.46.23c-1.31,1.74-2.69,3.42-4,5.12-1.91,2.43-1.93,2.46.7,4.17.7.45.89.75.36,1.5q-2,2.81-3.72,5.72c-.48.79-.86.91-1.64.38-2.45-1.61-5-3.12-7.4-4.75-.75-.5-1.09-.35-1.48.37-.54,1,.51.92.85,1.14,11.52,7.31,23.16,14.44,34.44,22.13,1.14.78,1.83.74,2.51-.4Q49.07,258.32,41,253c-.6-.39-.73-.68-.27-1.29,1.49-2,2.94-4,4.37-6,.39-.55.71-.68,1.33-.27,5.2,3.4,10.45,6.71,15.59,10.18.89.61,2.48,1.39,1.36,3.1ZM43.63,245c-1.42,2-2.89,3.89-4.27,5.89-.46.67-.82.66-1.45.26-2.13-1.35-4.27-2.68-6.44-4-.63-.38-.86-.66-.36-1.38,1.35-1.95,2.63-3.95,3.9-6,.35-.56.64-.77,1.3-.37,2.37,1.45,4.77,2.84,7.15,4.27.25.14.55.27.6.63C43.91,244.54,43.78,244.76,43.63,245Z"/><path class="cls-3" d="M53.16,232.82c1.34-1.51,2.78-2.92,4.18-4.37.24-.25.46-.53.72-.82a7.35,7.35,0,0,0-.42-.65c-.66-.83-1.37-1.62-2-2.47s-1-.63-1.55.12c-1.16,1.65-2.42,3.23-3.63,4.84-1.6,2.11-1.56,2.07.7,3.59A1.26,1.26,0,0,0,53.16,232.82Z"/><path class="cls-3" d="M60.53,225.13c1.1-1.19,2.22-2.36,3.39-3.48.54-.52.43-.85,0-1.36-3.17-3.75-6.3-7.52-9.44-11.29-.19-.22-.4-.43-.56-.61-.46,0-.56.36-.74.59-1,1.36-2,2.77-3.13,4.1-.56.68-.54,1.1.07,1.78,3.08,3.41,6.43,6.59,9.25,10.24C59.8,225.65,60.08,225.62,60.53,225.13Z"/><path class="cls-3" d="M65.64,218.41a6.43,6.43,0,0,1,.49.84c.45-.43.68-.62.88-.83.85-.87,1.64-1.8,2.55-2.6s.75-1.16.06-1.95c-3.38-3.89-6.71-7.83-10-11.77-.48-.57-.77-.84-1.3,0-.75,1.14-1.57,2.23-2.42,3.3a.94.94,0,0,0,0,1.42Q60.79,212.59,65.64,218.41Z"/><path class="cls-3" d="M77.9,206a8,8,0,0,0,.66.63,6.46,6.46,0,0,0,.51-.41c1.39-1.4,2.76-2.82,4.17-4.2.59-.57.09-.88-.22-1.24-3.14-3.58-6.29-7.14-9.4-10.73-.48-.55-.78-.66-1.26,0-1.08,1.4-2.2,2.78-3.34,4.13a.94.94,0,0,0,0,1.44C72,199.07,75,202.55,77.9,206Z"/><path class="cls-3" d="M60.55,229.54c2.1,2.19,4.32,4.25,6.28,6.59,3.11,3.72,6.28,7.41,9.42,11.11.37.43.65.86,1.33.31s.29-.92-.07-1.35c-1.21-1.43-2.39-2.88-3.63-4.28-.52-.59-.52-.92.11-1.44,3.45-2.83,6.92-5.61,10.5-8.26.69-.52,1.07-.45,1.57.21,1,1.32,2.12,2.58,3.18,3.87.32.39.56.86,1.19.35s.52-.84.07-1.36c-1.08-1.27-2.1-2.6-3.19-3.86-.52-.6-.61-1,0-1.61a96.54,96.54,0,0,1,11.07-9.21,1.15,1.15,0,0,1,.67-.28v-3l-.23-.24Q93,209.72,87.1,202.4c-.28-.35-.65-.66-.15-1.16,1.54-1.54,3-3.1,4.58-4.65a5.78,5.78,0,0,1,.53-.43c.16.23.3.49.49.72q3.2,4.05,6.53,8v-2.56q-2.7-3.23-5.33-6.49c-.53-.67-.52-1.05.08-1.63,1.39-1.32,2.72-2.72,4.06-4.09.4-.41,1-.72.33-1.46s-1-.12-1.42.27q-2,2.06-4,4.12c-.45.48-.78.69-1.33.07q-5.48-6.21-11-12.34c-.58-.64-.36-1,.09-1.51,1.12-1.3,2.2-2.64,3.33-3.94.46-.54.86-1,.09-1.61s-1,.25-1.33.6c-3,3.57-5.92,7.18-8.9,10.75-.24.29-.42,1.16-1.1.46-.41-.43-.89-.91-.24-1.54a7.7,7.7,0,0,0,.57-.71c2.74-3.38,5.49-6.76,8.21-10.15.47-.6,1.55-1.27.33-2.05-1-.67-1.19.61-1.57,1.06q-4.23,5.07-8.31,10.26c-.63.79-1,.85-1.72.09-1.2-1.3-2.5-2.51-3.76-3.75-.34-.33-.63-.84-1.2-.19s-.43.89.09,1.37c1.36,1.29,2.65,2.64,4,3.93.51.49.68.84.14,1.49q-4.89,5.88-9.7,11.86c-.56.7-.88.55-1.37,0-1.24-1.41-2.5-2.79-3.8-4.15-.28-.3-.47-1.15-1.23-.37-.6.63-.38,1,.1,1.49,1.34,1.44,2.63,2.94,4,4.37a1,1,0,0,1,.08,1.54c-3,3.95-6,7.92-8.88,11.92-.63.86-1,.66-1.6,0-1.32-1.39-2.7-2.74-4.1-4.06-.29-.27-.49-1.16-1.25-.36s-.35,1.08.19,1.59c1.38,1.33,2.69,2.75,4.12,4,.81.72.87,1.23.21,2.12-2.3,3.13-4.52,6.34-6.75,9.53-.23.32-.78.68-.11,1.09.32.19.63.63,1.06.26a4.51,4.51,0,0,0,.64-.85l7.07-10c1.75,1.89,3.37,3.7,5.07,5.43a1.19,1.19,0,0,1,.12,1.9c-1.89,2.38-3.69,4.82-5.51,7.25-.3.4-.86.78,0,1.32s1,.16,1.33-.34c1-1.43,2.09-2.87,3.2-4.24,1-1.19,1.74-3.44,2.92-3.34s2.15,2.2,3.21,3.42c.54.63.51,1-.08,1.62-1.93,1.93-3.79,3.92-5.69,5.89,1.28,1,1.29,1,2.26,0,1.51-1.56,3-3.12,4.5-4.72C59.64,229,60,229,60.55,229.54Zm16.6,6.25c-1.4,1.16-2.83,2.29-4.2,3.49-.62.54-1,.4-1.47-.18a113.53,113.53,0,0,0-9.85-10.72c-.59-.56-.53-.91,0-1.45,1.3-1.27,2.56-2.58,3.8-3.92.51-.55.84-.68,1.41,0,3.45,3.9,6.94,7.77,10.41,11.66a6.68,6.68,0,0,1,.47.62C77.53,235.45,77.35,235.63,77.15,235.79ZM83.44,231c-1.21.82-2.38,1.7-3.52,2.62-.57.45-.92.53-1.46-.09q-5.16-5.85-10.41-11.62c-.63-.69-.59-1.1.07-1.71,1.14-1.07,2.19-2.24,3.29-3.35.2-.22.43-.41.86-.8a5.83,5.83,0,0,0,.51.8c3.61,4.22,7.21,8.45,10.85,12.64C84.21,230.19,84.16,230.54,83.44,231ZM62.73,202.68a1,1,0,0,1,0-1.54c1.19-1.37,2.34-2.78,3.46-4.21.47-.59.76-.62,1.26,0,3.08,3.67,6.19,7.32,9.29,11,.19.22.34.46.54.74-.2.24-.35.44-.52.61-1.29,1.28-2.6,2.54-3.87,3.84-.5.52-.81.55-1.3,0Q67.19,207.83,62.73,202.68Zm27.62,22.16c-1.46,1.33-2.89,2.69-4.33,4a2,2,0,0,1-.35.24c-.39,0-.52-.29-.71-.51-3.72-4.32-7.42-8.66-11.15-13-.42-.49-.41-.8,0-1.25q2-1.92,4-3.93c.51-.52.79-.35,1.19.12,3.71,4.39,7.45,8.77,11.17,13.16C90.49,224.06,90.88,224.36,90.35,224.84Zm7.27-6.7c.15.19.29.4.47.65-.23.2-.4.38-.59.52-1.58,1.19-3.18,2.34-4.73,3.56-.62.48-.93.27-1.36-.23Q85.83,216,80.2,209.46c-.53-.62-.41-1,.11-1.49,1.49-1.45,2.94-2.93,4.37-4.43.49-.51.8-.61,1.29,0Q91.78,210.87,97.62,218.14Zm-23-31.63c1.25-1.46,2.44-3,3.62-4.48.4-.52.66-.57,1.13,0,3.65,4.12,7.33,8.21,11,12.31.16.18.3.38.48.6-.19.22-.35.42-.52.6-1.38,1.4-2.79,2.78-4.13,4.22-.58.61-.91.5-1.42-.08q-5-5.76-10.09-11.48C74.14,187.56,74.06,187.14,74.61,186.51Zm-2.35,2.92c.51-.66.81-.69,1.37-.05,3.34,3.86,6.72,7.68,10.09,11.52.3.34.66.63.17,1.13-1.65,1.64-3.27,3.31-4.91,5a4.8,4.8,0,0,1-.47.36c-.25-.25-.46-.46-.66-.69-3.11-3.66-6.2-7.33-9.34-11-.57-.65-.45-1.09,0-1.67C69.82,192.52,71.07,191,72.26,189.43Zm-11.85,9.09,8-9.89A19.86,19.86,0,0,1,70,186.8c.28-.28.45-1.14,1.12-.46.46.47.84,1,.23,1.68-1.32,1.54-2.55,3.14-3.82,4.71q-2.82,3.47-5.67,6.91c-.24.3-.43.7-.93.79l-.77-.88C59.77,199.09,60.18,198.81,60.41,198.52Zm-5.3,7.08c1.12-1.49,2.22-3,3.31-4.51a4.07,4.07,0,0,0,.29-.62c.42.44.63.65.82.87,3.61,4.23,7.19,8.48,10.82,12.67.61.71.57,1.11-.08,1.72-1.13,1.08-2.2,2.22-3.26,3.38-.51.57-.84.67-1.4,0-3.4-4.13-6.86-8.22-10.29-12.33C55,206.44,54.72,206.11,55.11,205.6Zm-5.61,9.26c-.53-.59-.64-1-.12-1.66,1.29-1.62,2.52-3.28,3.75-4.95.39-.53.67-.83,1.23-.15,3.41,4.13,6.85,8.24,10.28,12.35.12.15.24.32.4.54a6.07,6.07,0,0,1-.43.57c-1.37,1.42-2.76,2.82-4.1,4.26-.46.49-.76.5-1.18,0C56.35,221.88,52.78,218.5,49.5,214.86Z"/><path class="cls-3" d="M28.52,166.65c-.23.38-.82.73-.26,1.29.25.25.49.51.73.77,2.83,3,5.69,6,8.47,9.09.5.55,1.15,1,1.58.62s.22-1.19-.3-1.73c-1.26-1.32-2.43-2.71-3.74-4-.76-.75-.84-1.22-.11-2.1C40,164.48,45,158.28,50.07,152.11c.23-.28.37-.77.92-.61,3.86,3.86,7.69,7.75,11.6,11.55.88.86.92,1.34.11,2.29-5.17,6-10.27,12.12-15.4,18.19-.49.57-1,1.05-.08,1.69s1-.36,1.3-.69Q53,179.3,57.43,174c.55-.65.87-.77,1.48-.09.91,1,1.92,2,2.92,2.88.34.31.59,1.08,1.31.4s.27-1.11-.24-1.6c-.92-.87-1.74-1.85-2.72-2.64s-.77-1.34,0-2.17c3.11-3.53,6.14-7.13,9.23-10.68.51-.58.56-.93,0-1.47s-.86,0-1.15.37c-.84.94-1.73,1.85-2.48,2.87s-1.2.94-2.05.06c-3.29-3.43-6.67-6.78-10-10.17-.82-.83-1.67-1.26-2.65-.23a2.55,2.55,0,0,0-3.29.9c-4.5,5.59-9.07,11.12-13.61,16.68-1.16,1.42-1.16,1.42-2.45,0-.73-.77-1.45-1.55-2.19-2.31C29.2,166.57,28.91,166,28.52,166.65Z"/><path class="cls-3" d="M65.31,161.59c3.09-3.14,3.09-3.14,0-6.27a4.37,4.37,0,0,1-.64-.65c-2.64-3.75-6-5.12-10.77-2.92,3.42,3.33,6.84,6.62,10.21,9.95C64.65,162.23,64.9,162,65.31,161.59Z"/><path class="cls-3" d="M78.86,163.69c.13,1.34,2,2.47,3.12,3.74.56.67.93.65,1.55.06,4.51-4.29,9-8.54,13.57-12.81.21-.21.41-.43.69-.73-.21-.24-.39-.46-.59-.66C96.14,152.2,95,151.16,94,150c-.68-.78-1.09-.68-1.77,0-3.39,3.39-6.87,6.7-10.26,10.1C80.85,161.28,78.72,162.3,78.86,163.69Z"/><path class="cls-3" d="M33.62,169c2.72-3.39,5.49-6.74,8.24-10.1L47.42,152c-2.42.27-4.37.55-6.33.68a4.44,4.44,0,0,0-3.5,2.07c-2,2.76-4,5.5-5.93,8.25-2.29,3.21-2.27,3.19.48,6C32.77,169.65,33.07,169.64,33.62,169Z"/><path class="cls-3" d="M84.85,199c.47.55.79.61,1.31.05,1.13-1.22,2.33-2.38,3.5-3.57.18-.18.34-.37.55-.61-.15-.21-.29-.41-.44-.59q-5.16-5.76-10.3-11.54c-.49-.55-.8-.61-1.28,0q-1.47,1.92-3,3.78a.92.92,0,0,0,0,1.42Q80,193.5,84.85,199Z"/><path class="cls-3" d="M81.87,269.57c.28-.3,1-.44.69-1-.62-1-1.42-1.81-2.18-2.76A14.3,14.3,0,0,0,79.06,267c-.37.38.11.62.28.88.37.53.83,1,1.2,1.55S81.37,270.11,81.87,269.57Z"/><path class="cls-3" d="M51.45,238.51c-1.08,1.4-2.19,2.78-3.37,4.1-.66.75-.66,1.11.24,1.69,4.65,2.95,9.25,6,13.88,9a8.09,8.09,0,0,1,2.5,2.16c.23.35.47.86,1,.4,1.07-.85,2.15-1.69,3.21-2.54a2.65,2.65,0,0,0,.34-.45c-.23-.3-.43-.53-.61-.77A48,48,0,0,0,53.05,238.2C52.3,237.77,51.94,237.88,51.45,238.51Z"/><path class="cls-3" d="M84.85,204c-1.38,1.4-2.75,2.83-4.16,4.21-.57.55-.15.88.17,1.25,3.53,4.17,7.08,8.32,10.6,12.51.48.57.81.7,1.45.17a46.55,46.55,0,0,1,3.77-2.8c.79-.53.66-.91.15-1.54-3.63-4.48-7.23-9-10.84-13.48-.18-.23-.39-.44-.63-.71C85.16,203.81,85,203.9,84.85,204Z"/><path class="cls-3" d="M75,123.08q-7.2,1-14.43,1.87c-.72.09-1.07.33-.94,1.15a35.33,35.33,0,0,1,.45,4.22c0,1,.45,1.09,1.32,1q6.92-.9,13.85-1.69c1.13-.13,1.87-.42,1.37-1.58-.14-1.44-.31-2.69-.38-4C76.2,123.21,75.85,123,75,123.08Z"/><path class="cls-3" d="M37.91,229.89c-1.12,1.49-2.26,3-3.48,4.39-.69.8-.7,1.21.27,1.77,3.19,1.84,6.33,3.76,9.5,5.65.25.15.52.29.84.47a5.57,5.57,0,0,0,.56-.51c1.28-1.55,2.54-3.14,3.86-4.66.66-.76.13-1-.4-1.35-3.2-2-6.42-4-9.58-6.1C38.72,229.05,38.38,229.26,37.91,229.89Z"/><path class="cls-3" d="M89.8,251.05q4.15-3.2,8.24-6.47c.48-.39.74-.28,1,.14v-3.11c-.33.08-.57-.11-.88-.5C97.35,240,96.42,239,95.56,238c-.39-.48-.7-.59-1.24-.16s-.37.8,0,1.23c.87,1,1.67,2,2.57,3,.57.61.61.95-.11,1.5-3.14,2.39-6.26,4.81-9.31,7.3-.8.65-1.15.44-1.67-.24-.67-.88-1.45-1.69-2.13-2.56-.42-.53-.75-.49-1.24-.08s-.41.71-.05,1.12c1.09,1.26,2.17,2.54,3.25,3.81a1,1,0,0,0,1.57.2c.56-.5.87-.2,1.22.25.72.91,1.46,1.81,2.2,2.71.37.45.77.9,1.38.37s.22-1-.15-1.43c-.7-.86-1.38-1.74-2.1-2.59C89.32,251.9,89.17,251.53,89.8,251.05Z"/><path class="cls-3" d="M46.44,230c.49.1.62-.22.8-.45,1.8-2.37,3.58-4.76,5.39-7.12.41-.52.3-.86-.11-1.29-1.35-1.43-2.7-2.87-4-4.34-.52-.58-.8-.53-1.23.1-1.27,1.88-2.61,3.71-3.92,5.57-.87,1.24-2.51,2.59-2.36,3.7.17,1.3,2.35,1.77,3.6,2.67C45.22,229.27,45.88,229.64,46.44,230Z"/><path class="cls-3" d="M72.43,212.58c1.37-.19,2.49-2.19,3.71-3.4.18-.17.32-.38.51-.6a7.46,7.46,0,0,0-.45-.63c-3-3.48-5.9-6.94-8.83-10.42-.51-.6-.78-.37-1.15.1-.92,1.15-1.83,2.3-2.81,3.39a1.12,1.12,0,0,0,0,1.79c1.89,2.11,3.65,4.34,5.56,6.42C70.11,210.45,71,212.8,72.43,212.58Z"/><path class="cls-3" d="M79,211.28c-.18-.22-.32-.53-.78-.52-.18.16-.41.34-.62.55-1,.95-1.91,1.95-2.93,2.86-.68.6-.7,1-.08,1.71q5.18,5.94,10.25,12c.6.71,1,.63,1.55.05,1-1,2-1.9,3-2.8.57-.49.68-.85.14-1.47C86,219.53,82.55,215.39,79,211.28Z"/><path class="cls-3" d="M72.68,217.47c-.55-.66-.84-.42-1.27,0-.9,1-1.79,1.93-2.75,2.82-.65.6-.54,1,0,1.6q5,5.49,9.91,11c.37.42.64.67,1.2.21,1.06-.85,2.18-1.63,3.27-2.45.2-.14.43-.28.41-.63-.13-.17-.27-.37-.44-.56C79.57,225.52,76.1,221.51,72.68,217.47Z"/><path class="cls-3" d="M66.71,223.5c-.51-.58-.79-.31-1.18.1-1,1.1-2.06,2.23-3.18,3.25-.73.67-.59,1,0,1.66,2.29,2.21,4.5,4.49,6.59,6.91,1.08,1.26,1.94,3.53,3.46,3.39s2.69-2,4-3.05a1.92,1.92,0,0,0,.34-.3,1.84,1.84,0,0,0,.19-.37,5.65,5.65,0,0,0-.39-.51C73.31,230.89,70,227.21,66.71,223.5Z"/><path class="cls-3" d="M96.36,340c-.89.69-.1,1,.21,1.44.82,1.05,1.65,2.09,2.51,3.11v-2.56l-1.2-1.47C97.49,340,97.22,339.29,96.36,340Z"/><path class="cls-3" d="M60.55,329.27c2.39-1.68,4.81-3.32,7.22-5a4.81,4.81,0,0,0,.53-.49,5.43,5.43,0,0,0-.31-.6c-1.78-2.81-3.58-5.61-5.34-8.43-.44-.71-.78-.36-1.18,0-2.26,1.78-4.51,3.57-6.79,5.32-.5.39-.58.66-.23,1.22,1.57,2.52,3.12,5.06,4.62,7.63C59.49,329.63,59.84,329.77,60.55,329.27Z"/><path class="cls-3" d="M50.6,271.2c-.48-.1-1-.45-1.28.23-.11.28-.45.8,0,1s1,.71,1.47.11c.3-.33.85-.3.75,0-.44,1.25.66,1.24,1.2,1.58,2.23,1.39,4.52,2.69,6.77,4,1.12.68,2.92,1.07,3.15,2.13s-1,2.32-1.47,3.54c-.38,1-.88.93-1.7.54-2.61-1.22-5.25-2.37-7.87-3.56-1.78-.81-3.75-1.33-4.75-3.27-.31-.61-.65-.27-.94,0s-.83.39-.38.91c.82.94,1.36,2.07,2.65,2.62,3.53,1.5,7,3.16,10.52,4.7.84.36,1.09.68.57,1.53s-.75,1.66-1.15,2.47c-.31.62-.2,1,.46,1.31s.8-.21,1-.63c1.43-2.84,2.88-5.67,4.27-8.52.37-.77.72-.77,1.38-.36,4.89,3.05,9.78,6.1,14.7,9.1.74.45.81.8.38,1.53-1.36,2.36-2.63,4.78-4,7.16-.34.6-.33.93.34,1.3s.84-.08,1.08-.52c1.29-2.34,2.62-4.67,3.88-7,.38-.71.66-1,1.46-.44,2,1.33,4,2.6,6,3.84.7.42.7.78.31,1.43-1.34,2.26-2.62,4.56-3.92,6.84-.3.53-.72,1,.13,1.47s1-.26,1.28-.71c1.28-2.18,2.55-4.36,3.77-6.58.41-.75.69-1,1.56-.46l6.81,4.37v-1.94C83.53,291,67.94,281.1,52,271.81A4.33,4.33,0,0,0,50.6,271.2Z"/><path class="cls-3" d="M59.06,332.57c.95-.77,1.53-.86,2.31.39,3.84,6.12,7.78,12.18,11.73,18.24.27.42.34,1.44,1.37.8s.24-1.2-.07-1.72c-.84-1.38-1.72-2.73-2.63-4.07-.4-.6-.5-1,.21-1.46q8.82-5.91,17.59-11.9c.61-.42.91-.35,1.29.27,1,1.59,2,3.13,3.06,4.71.33.52.6.68,1.2.3s.51-.69.18-1.19c-1-1.55-2-3.15-3.09-4.68-.48-.68-.35-1,.3-1.41,1.87-1.21,3.62-2.6,5.55-3.7.35-.2.69-.42,1-.64v-2c-2.43,1.62-4.86,3.24-7.23,4.93-.84.59-1.22.47-1.75-.36q-3.54-5.57-7.22-11.05c-.58-.86-.38-1.22.38-1.74,1.91-1.3,4-2.34,5.25-4.48.21-.38.65-.7,0-1.1s-.91-.53-1.35.16a5.75,5.75,0,0,1-1.53,1.87c-2.35,1.57-4.71,3.13-7,4.73-.59.4-.94.37-1.33-.26q-3-4.86-6-9.66a.78.78,0,0,1,.23-1.25c1.22-.9,2.4-1.86,3.59-2.81.22-.18.54-.3.55-.7l-.31-.26c-.75-.64-1.31-.28-2,.24-6.82,5.39-13.67,10.74-20.49,16.14-.89.72-1.36.77-2.05-.31-3.78-6-7.64-11.91-11.51-17.84-2.35-3.61-2.38-3.6-6.06-1.46-.17.1-.35.21-.53.3-.39.2-.51.45-.21.83s.32.82.88.62a6.84,6.84,0,0,0,.81-.41c2.25-1.23,2.25-1.23,3.7.89.17.25.33.51.49.77l10.3,15.92c1.53,2.37,1.53,2.37-.67,4.11a.38.38,0,0,1-.13.09c-.64.35-.44.74-.15,1.24s.67.4,1.08.1c.69-.5,1.44-.94,2.11-1.48.84-.69,1.39-.69,2,.36,1.16,2.07,2.45,4.06,3.67,6.1,1.52,2.54,1.51,2.54-.76,4.33-.16.12-.3.26-.48.37-.67.42-.27.83,0,1.26s.64.3,1,0C57.22,334,58.16,333.3,59.06,332.57Zm20.83-14.08c.75-.52,1.13-.48,1.65.32,2.39,3.76,4.85,7.47,7.28,11.2.17.25.32.51.46.72,0,.46-.29.56-.52.72-5.9,4-11.81,8-17.7,12-.66.45-.9.24-1.26-.33q-3.67-5.76-7.41-11.47c-.39-.6-.36-.89.26-1.31Q71.29,324.47,79.89,318.49Zm-15.55-6.62c1.49-1.12,3-2.26,4.4-3.46.65-.53,1-.42,1.38.26,1.92,3.14,3.88,6.26,5.82,9.39.11.17.2.35.29.49.09.43-.22.56-.46.73-1.57,1.1-3.16,2.18-4.71,3.3-.55.39-.83.29-1.18-.26q-2.85-4.56-5.76-9.08C63.75,312.66,63.76,312.31,64.34,311.87Zm-10.42,9.42c-.44-.69-.31-1,.28-1.46,2.44-1.88,4.86-3.8,7.29-5.7.42-.34.81-.81,1.31,0,1.92,3.09,3.89,6.15,5.83,9.23.09.13.15.26.24.42.09.39-.28.48-.5.63-2.62,1.82-5.25,3.61-7.86,5.43-.73.51-1.15.48-1.64-.38C57.28,326.7,55.62,324,53.92,321.29Z"/><path class="cls-3" d="M69.94,342.53c.39.62.7.68,1.3.27q8.4-5.73,16.82-11.4c.58-.4.69-.71.28-1.32-2.37-3.58-4.71-7.19-7.06-10.78-.19-.28-.29-.68-.77-.62-.22.13-.44.24-.65.38-5.53,3.81-11.06,7.64-16.61,11.43-.63.43-.58.77-.21,1.34C65.36,335.38,67.67,339,69.94,342.53Z"/><path class="cls-3" d="M56.08,332.23c.43-.52,1.74-.57,1-1.77-1.52-2.49-3-5-4.54-7.49-.17-.29-.31-.66-.84-.68-.6.41-1.24.9-1.94,1.29s-.89.84-.33,1.62c1.6,2.2,3.15,4.44,4.63,6.73C54.71,332.92,55.28,333.19,56.08,332.23Z"/><path class="cls-3" d="M41.67,327.38c-.56.42-.52.67-.18,1.19q4.84,7.32,9.64,14.68c.41.62.75.64,1.33.24.91-.64,1.88-1.19,2.81-1.79.27-.18.68-.29.61-.8l-.61-1c-2.41-4-5.12-7.76-7.73-11.6C45.13,324.76,45.14,324.78,41.67,327.38Z"/><path class="cls-3" d="M83.75,316.5c-.58.4-.87.67-.38,1.4q3.59,5.36,7,10.77c.42.64.74.64,1.32.24,2.44-1.68,4.93-3.29,7.35-5v-6.08q-4.67-2.86-9.32-5.74c-.4-.25-.74-.34-1,.13C87.61,314.26,85.54,315.22,83.75,316.5Z"/><path class="cls-3" d="M93.2,330.92c-.7.45-.86.8-.34,1.52a42,42,0,0,1,2.4,3.67c.45.76.82.75,1.52.3l2.3-1.44V327l-.85.54C96.5,328.61,94.9,329.84,93.2,330.92Z"/><path class="cls-3" d="M98.36,340.31l.72.89v-2.28l-1,.67C97.77,339.82,98.19,340.11,98.36,340.31Z"/><path class="cls-3" d="M90.83,299.67c-1,1.83-2,3.65-3.09,5.39-.67,1-.55,1.55.52,2.21q5.43,3.3,10.82,6.65v-10.5l-6.59-4.22C91.58,298.61,91.27,298.85,90.83,299.67Z"/><path class="cls-3" d="M70,321.66c.16.25.27.56.65.56a1.65,1.65,0,0,0,.26-.14L75.4,319c.42-.29.2-.59,0-.9-1.85-2.95-3.7-5.9-5.51-8.87-.36-.6-.65-.6-1.15-.19-1.25,1-2.52,2-3.82,3-.58.44-.56.8-.19,1.37C66.52,316.12,68.26,318.9,70,321.66Z"/><path class="cls-3" d="M33.74,329.62c1.13-.77,2.34-1.59,3.52-2.45.25-.18,0-.46-.17-.66q-4.79-7.31-9.56-14.6c-.31-.47-.63-.67-1.08-.25-1,.91-2.63,1-3.1,2.49,0,.13.2.34.31.51q4.61,7.13,9.22,14.26C33.07,329.21,33.19,329.58,33.74,329.62Z"/><path class="cls-3" d="M30.65,331.69c.23-.16.58-.25.51-.81-.71-1.05-1.47-2.24-2.31-3.37-.2-.27-.54.08-.79.23-4.26,2.57-8.33,5.25-10.47,10.12-1.25,2.84-1.46,2.68,1.2,4.33,1.06.66,1.49.49,2-.58A18.06,18.06,0,0,1,28,333.5C29,333,29.79,332.31,30.65,331.69Z"/><path class="cls-3" d="M70.57,354l1.87-1.3c.24-.17.54-.29.56-.73-.18-.29-.38-.64-.59-1L62.15,335.09c-1.87-2.9-1.84-2.86-4.67-.76-.91.67-1.08,1.12-.42,2.15,3.62,5.65,7.15,11.36,10.72,17,.26.4.45.71.62.92h1.53Z"/><path class="cls-3" d="M51.26,348.11c-.24-.39-.51-.44-.86-.16-2.46,2-5.31,3.53-6.8,6.5H55.23Z"/><path class="cls-3" d="M40.78,334.26c.32-.22.76-.33.82-.88-.7-1.07-1.45-2.15-2.12-3.27-.43-.72-.77-.84-1.51-.32-2.89,2-5.78,4.09-8.77,6a17.68,17.68,0,0,0-6.45,7.47c-.33.69-.36,1,.38,1.41a32.19,32.19,0,0,1,3.05,1.67c.77.49,1.13.27,1.51-.47a19.25,19.25,0,0,1,7.4-7.81C37,336.85,38.89,335.53,40.78,334.26Z"/><path class="cls-3" d="M42.1,336.39c-2.35,1.65-4.78,3.2-7.16,4.81a15.45,15.45,0,0,0-4.56,5c-1.08,1.81-1,1.84.88,2.89a15.79,15.79,0,0,1,1.45.81c.88.65,1.42.53,1.95-.49a16.09,16.09,0,0,1,6-6.45c1.42-.87,2.82-1.77,4.23-2.66.28-.18.68-.26.71-.8-.56-.87-1.22-1.77-1.76-2.73S42.93,335.81,42.1,336.39Z"/><path class="cls-3" d="M15.29,353.52c-.92-.51-1,.23-1.25.68v.25h1.71C15.89,354.15,15.87,353.85,15.29,353.52Z"/><path class="cls-3" d="M29.93,309.47c-.45.34-.6.56-.26,1.08q4.8,7.27,9.57,14.57c.19.29.34.62.81.31,1.14-.76,2.3-1.47,3.44-2.22a1.45,1.45,0,0,0,.33-.44l-.69-1.08q-3.78-5.67-7.57-11.35C33.26,306.9,33.27,306.91,29.93,309.47Z"/><path class="cls-3" d="M48.41,321.5c.79-.62,1.32-.93.56-2.07-3.82-5.76-7.53-11.6-11.28-17.4a17.26,17.26,0,0,0-1.1-1.45,3.9,3.9,0,0,0-.56-.5,10,10,0,0,0-1.84,1.12c-.51.47.08.88.34,1.28q6.11,9.27,12.18,18.55C47.18,321.75,47.49,322.23,48.41,321.5Z"/><path class="cls-3" d="M57.47,354.16c-1.5-2.46-3-4.91-4.6-7.33-.46-.7-.27-1,.38-1.42,1.17-.69,2.32-1.43,3.47-2.17.28-.18.65-.31.75-.78a7.24,7.24,0,0,0-.53-.84c-.27-.35-.54-.08-.78.07-1.25.77-2.51,1.52-3.72,2.35-.7.49-1.06.43-1.54-.31q-4.95-7.64-10-15.21c-.47-.7-.32-1,.35-1.4,1.17-.68,2.31-1.45,3.45-2.19.42-.27.9-.47.48-1.16s-.78-.6-1.34-.23c-1.18.79-2.4,1.51-3.57,2.31-.61.43-.92.31-1.31-.29q-4.89-7.5-9.82-15c-.48-.72-.27-1,.38-1.4,1.18-.69,2.31-1.45,3.48-2.16.47-.28.63-.55.3-1.08s-.65-.65-1.2-.28c-1,.68-2.1,1.24-3.06,2s-1.51.69-2.24-.4c-2-3-4.22-5.93-6.34-8.89-.34-.47-.57-.89-1.3-.4s-.37.86,0,1.3c.71,1,1.4,2,2.15,2.94.46.58.53.94-.18,1.42q-3.54,2.36-7,4.73v2l8.11-5.48c.35-.23.66-.47,1,0,.92,1.32,1.87,2.63,2.81,3.95a3.14,3.14,0,0,1,.18.37c-.07.39-.39.49-.63.64L14,317v1.89Q17,317,20,315.14c.82-.53,1.23-.49,1.77.37q2.78,4.42,5.72,8.75c.52.77.48,1.15-.33,1.62-1.44.85-2.77,1.86-4.21,2.7a15.18,15.18,0,0,0-6,6.27c-.74,1.43-1.57,2.82-2.39,4.21-.13.23-.21.56-.52.63v2.09c1.51.9,3,1.8,4.57,2.66.76.42.71.81.31,1.42-.53.81-1,1.66-1.48,2.48-.28.46-.5.83.16,1.22s1,.14,1.28-.44c.47-.89,1-1.73,1.52-2.62.31-.55.63-.68,1.21-.35,4.94,2.76,10,5.34,14.8,8.3h3l-1.68-1.06c-2.23-1.41-2.19-1.39-.86-3.7a15.29,15.29,0,0,1,5.48-5.33c1.37-.86,2.75-1.7,4.1-2.6.64-.43,1.09-.45,1.43.31l.08.12c.69,1.11,2,2.28,1.89,3.31-.09.87-1.76,1.64-2.79,2.35a14.75,14.75,0,0,0-5.71,6.52l0,.08h1.75c1.63-3.24,4.72-5,7.48-7.16a3.72,3.72,0,0,1,.38-.22c.35.08.47.38.63.63,1.42,2.25,2.82,4.51,4.25,6.75h1.89A1.82,1.82,0,0,1,57.47,354.16ZM22.88,314.35c-.35-.55-.34-.9.27-1.17l.13-.07c1.3-.78,2.65-2.24,3.87-2.13s1.71,2.16,2.51,3.37c2.6,3.91,5.15,7.85,7.72,11.77.22.33.42.68.66,1.06-.24.2-.42.38-.62.52-1.13.76-2.28,1.48-3.39,2.27-.56.39-.84.29-1.19-.26Q27.89,322,22.88,314.35Zm-2,27.92c-.19.41-.27,1-.95,1.11-1.4-.84-2.85-1.67-4.25-2.58-.31-.2.06-.55.2-.78,1.17-2.07,2.35-4.13,3.56-6.18A9.28,9.28,0,0,1,22.33,331c1.89-1.27,3.82-2.48,5.7-3.76.71-.49,1.16-.46,1.51.34a.6.6,0,0,0,.09.13c.73,1.2,2.15,2.49,2,3.59s-2,1.79-3.21,2.52A19.24,19.24,0,0,0,20.91,342.27Zm5.27,4.57a41.87,41.87,0,0,0-3.72-2c-.66-.34-.68-.66-.36-1.3a18.68,18.68,0,0,1,6.71-8c3.12-2,6.14-4.1,9.15-6.22.83-.58,1.25-.51,1.74.36.62,1.09,1.37,2.12,2.07,3.18l.46.73c0,.55-.51.65-.82.86-2.14,1.45-4.25,2.93-6.45,4.28a18.57,18.57,0,0,0-7,7.6C27.53,347.17,27.12,347.45,26.18,346.84Zm19.36-6.4c-1.11.7-2.21,1.42-3.35,2.07a17.57,17.57,0,0,0-7.33,7.43c-.54,1.1-1.12,1.14-2.07.53s-2.2-1.25-3.31-1.84c-.56-.29-.66-.58-.34-1.18A17.57,17.57,0,0,1,35,340.63c2.35-1.56,4.75-3.07,7-4.73,1.07-.77,1.59-.61,2.16.49.46.89,1.1,1.69,1.65,2.54.17.25.31.52.45.74C46.19,340.13,45.83,340.25,45.54,340.44Z"/><path class="cls-3" d="M51,56.66c-.4.11-.73.25-.66.82.47,4,.9,8,1.37,12.16l3-1.52c2.42-1.23,3.62-1,5.53.87a2.31,2.31,0,0,0,1.63,1q3.57.08,7.12.24c.8,0,1.1-.18,1-1-.23-1.54-.41-3.1-.59-4.65-.06-.46-.18-.89-.71-.7-2.37.89-4.14-.65-6.11-1.44a4,4,0,0,1-2.31-3.29,13,13,0,0,1-.25-2.4,1.2,1.2,0,0,0-.21-.73H53.81C52.86,56.17,51.91,56.42,51,56.66Z"/><path class="cls-3" d="M87.54,263.8c.24.27.42.85.92.44s1.26-.81,1.6-1.58c-.7-.86-1.35-1.69-2-2.51-.16-.19-.35,0-.54,0q-2.13.92-.72,2.68C87,263.18,87.27,263.5,87.54,263.8Z"/><path class="cls-3" d="M44.24,70.05c2.51,0,2.76-.31,2.48-2.84Q46.11,61.59,45.51,56H43.89c0,.18,0,.35,0,.53.37,3.57.71,7.15,1.12,10.72.1.82,0,1.25-.94,1.19-.42,0-1-.07-.74.71C43.53,69.59,43.45,70.06,44.24,70.05Z"/><path class="cls-3" d="M50.76,74.7c1.82,1.68,3.59,3.41,5.4,5.1,1.09,1,1.61.87,1.82-.63.3-2.25.46-4.52.64-6.31.1-2-.84-3.33-1.85-2.88a25.55,25.55,0,0,0-6.09,3.32C50,73.87,50.23,74.22,50.76,74.7Z"/><path class="cls-3" d="M44.07,68c.69-.07.58-.56.53-1Q44,61.47,43.41,56H42.35q.51,5.55,1,11.1C43.42,67.48,43.32,68.05,44.07,68Z"/><path class="cls-3" d="M40.17,60.35c-.21-2.5-.2-2.49-2.73-2.2Q25.74,59.46,14,60.72V91c.09.66.17,1.32.2,2,.37,6.64,1.81,13.2,1.59,19.89,0,.92.39,1.06,1.22,1q15.15-1.67,30.31-3.26c1-.1,1.2-.45,1.08-1.44q-1.52-12-2.89-23.93a5,5,0,0,0-2-4c-1.62-1.1-2.07-2.71-2.16-4.57-.17-3.21-1-6.39-.51-9.36C40.59,64.78,40.36,62.57,40.17,60.35Z"/><path class="cls-3" d="M62.32,72.52c-.92-.07-1.18.27-1.27,1.18a38.5,38.5,0,0,1-.8,6.77c-.2.71,0,1,.76,1,3.08.15,6.16.33,9.24.58,1.11.09,1.26-.34,1.13-1.29q-.5-3.52-.89-7.07c-.09-.79-.46-1-1.19-1-1.26,0-2.53,0-3.79,0v-.15C64.45,72.54,63.38,72.6,62.32,72.52Z"/><path class="cls-3" d="M73.3,271.92a2.3,2.3,0,0,0-.4.2c-.69.58-1.74,1-1.89,1.85s1,.81,1.59,1.27c.79.67,1.45.38,2.06-.27.24-.26.82-.39.41-.92C74.48,273.32,73.87,272.61,73.3,271.92Z"/><path class="cls-3" d="M91.66,75.09c1.12,0,2.23,0,3.34,0,.91,0,1.28-.33.64-1.29-1.66-2.48-3.19-5-4.83-7.52a10,10,0,0,1-1.76-4.63c-.07-.82-.4-.89-1-.75-2.08.42-4.16.82-6.25,1.23a7.78,7.78,0,0,1-5.31-.43,4.68,4.68,0,0,0-3.23-.45c-.68.14-.93.36-.81,1.09.26,1.69.46,3.4.67,5.11q2.06,17.16,4.11,34.32c.58,5,1.1,9.92,1.7,15.3,1.36-1.74,2.49-3.16,3.58-4.6A157.09,157.09,0,0,1,92.87,99.61c2-2.07,3.56-4,3.56-7a1.94,1.94,0,0,1,1.26-1.74l1.39-.73V79c-.25-.39-.5-.78-.77-1.16-.4-.58-.79-.91-1.48-.65-1.71.63-3.49.39-5.26.43-.92,0-1.87-.11-1.87-1.25S90.68,75.07,91.66,75.09Z"/><path class="cls-3" d="M48.14,57c.52,4.17.9,8.35,1.44,12.51a3.13,3.13,0,0,1-1.1,3.06c-1.43,1.27-1.37,1.47,0,2.74l6.06,5.74c.73.7,1.38,1.48,2.55,1.43.74,0,.67.6.71,1.1.18,2.12.46,4.23.51,6.35a3,3,0,0,0,1.84,2.7c-.21-2.75-.37-5.35-.63-7.94-.1-.94.1-1.21,1.08-1.19,3.51.07,3.55,0,4,3.43.42,3.16.75,6.33,1.12,9.5.23,2,.36,2.14,2,3.13-.56-4.63-1.09-9.19-1.66-13.74-.26-2.08-.3-2.07,1.85-1.89,1,.09,2,.2,3,.2.45,0,1.21.47,1.32-.46s-.57-1.09-1.36-1.13c-3.18-.17-6.35-.39-9.53-.57-1.9-.11-1.9-.09-1.47-2a51.47,51.47,0,0,0,.73-6.78c.1-1.08.5-1.31,1.5-1.25,2.53.15,5.06.21,7.59.27.41,0,1.09.32,1-.6,0-.67-.29-1-1-1-2.43,0-4.86-.18-7.29-.16a3.26,3.26,0,0,1-2.63-1.17c-1.69-1.79-2.71-1.89-5-.81-1.16.55-2.44,1.94-3.44,1.39s-.45-2.34-.62-3.58c-.37-2.65-.56-5.33-.93-8-.19-1.31,0-2,1.51-2.27L51.8,56H48.15A3.1,3.1,0,0,0,48.14,57Zm1.75,16.42c1.88-2,4.4-2.83,6.78-3.89,1.15-.51,2.58.94,2.53,2.28-.29,2.61-.51,5.23-.89,7.83-.2,1.4-1.13,1.67-2.2.69C54,78.44,52,76.46,49.93,74.53,49.51,74.14,49.47,73.89,49.89,73.45Z"/><path class="cls-3" d="M14,58.18a1.09,1.09,0,0,0,.37-.07c1.88-.22,3.48-.44,5.08-.6.63-.06.85-.28.77-.95L20.2,56H14Z"/><path class="cls-3" d="M25,274.13c.24-.17.54-.29.55-.68a3.13,3.13,0,0,0-.23-.37c-2-2.37-3.74-5-6.33-6.89-.62-.45-.8-.23-1.11.27q-1.42,2.32-2.92,4.61a1,1,0,0,0,0,1.35c1.23,1.66,2.45,3.34,3.62,5.05.42.61.76.62,1.34.21C21.61,276.47,23.32,275.31,25,274.13Z"/><path class="cls-3" d="M48.41,278.74a4.81,4.81,0,0,0,1.17.67l8,3.61c2.94,1.33,2.9,1.31,4.31-1.6.39-.81.32-1.18-.48-1.64-3.07-1.75-6.09-3.58-9.13-5.37-.3-.18-.61-.32-.9-.48a17.86,17.86,0,0,0-2.9,2.27C47.14,277.25,47.14,277.6,48.41,278.74Z"/><path class="cls-3" d="M20.75,279.64c1.9-1.33,3.84-2.62,5.71-4,.77-.57,1.15-.45,1.65.33,1.42,2.21,2.93,4.37,4.4,6.55.28.42.48.88,1.15.41s.61-.72.2-1.31c-1.43-2-2.71-4.16-4.19-6.14-.87-1.14-.62-1.63.48-2.39,2.28-1.56,4.93-2.66,6.65-4.94.68-.89,1.23-.89,2.14-.43,2.53,1.27,5.13,2.39,7.67,3.65a1.25,1.25,0,0,0,1.9-.56c.23-.62-.7-.65-1.14-.86-8.18-3.75-16.33-7.56-23.74-12.73-.93-.64-1.41-.56-2.07.35-2.6,3.64-5.15,7.31-7.52,11.1v3.05c1.23-2,2.47-3.83,3.63-5.76.45-.74.73-.8,1.47-.27,2.76,2,4.59,4.83,6.77,7.34.59.67.19.92-.32,1.26-1.92,1.32-3.82,2.65-5.74,4-.45.31-.94.54-.45,1.29S20.27,280,20.75,279.64ZM25.56,270a25.58,25.58,0,0,0-5.58-5.7c-.64-.44-.73-.83-.23-1.46.87-1.11,1.7-2.25,2.48-3.43.44-.65.82-.7,1.47-.27,1.29.87,2.63,1.68,4,2.5a52.58,52.58,0,0,0,7.47,4.27c.31.13.69.21.85.69a7.34,7.34,0,0,1-1.23,1.45c-2.1,1.48-4.25,2.88-6.38,4.33a.62.62,0,0,1-1-.15C26.79,271.5,26.15,270.79,25.56,270Z"/><path class="cls-3" d="M71.82,306.61c-.49.38-.13.71.07,1,1.84,3,3.71,5.91,5.52,8.89.4.66.74.66,1.31.27,1.42-1,2.88-1.88,4.28-2.87a12.85,12.85,0,0,0,3.31-2.62c.54-.75.54-1.09-.31-1.6-3.12-1.87-6.19-3.83-9.28-5.75-.25-.16-.52-.3-.78-.46a3.34,3.34,0,0,0-.42.2Z"/><path class="cls-3" d="M79.79,292.31c.37-.65.35-1-.34-1.41-4.7-2.86-9.37-5.78-14.06-8.68-.21-.13-.43-.24-.59-.32-.41,0-.48.27-.59.48-1.33,2.6-2.64,5.21-4,7.81-.34.65-.26,1,.46,1.41,4.75,2.46,9.48,5,14.21,7.49.67.36,1,.31,1.38-.41C77.4,296.53,78.58,294.41,79.79,292.31Z"/><path class="cls-3" d="M84,304.57c.21.13.43.25.6.34.44,0,.53-.37.67-.62,1.21-2.1,2.38-4.22,3.63-6.3.39-.66.2-.95-.37-1.3-1.8-1.11-3.6-2.24-5.35-3.44-.65-.44-.91-.29-1.25.33-1.14,2.14-2.32,4.26-3.52,6.37-.34.59-.33.95.31,1.34C80.51,302.35,82.25,303.47,84,304.57Z"/><path class="cls-3" d="M28.62,271.7c1.86-1.31,3.77-2.54,5.66-3.81a3,3,0,0,0,1-1.29,4.85,4.85,0,0,0-.7-.43c-2.91-1.22-5.42-3.12-8.12-4.7-1.16-.69-2.36-2.18-3.46-1.85s-1.7,2-2.52,3.06c-.07.08-.11.18-.18.25-.37.4-.43.75.08,1.11,2.85,1.95,4.75,4.79,6.91,7.39C27.69,271.94,28,272.14,28.62,271.7Z"/><path class="cls-3" d="M60.39,56.35c0,.61.08,1.22.12,1.82a4.31,4.31,0,0,0,2.9,4.18c1.78.69,3.4,1.76,5.46,1,.61-.24.78-.45.71-1.05s-.52-.69-1-.56A5.68,5.68,0,0,1,65,61.32c-2.09-.75-2.82-2.09-2.94-4.2,0-.38-.06-.77-.08-1.15H60.32A2,2,0,0,1,60.39,56.35Z"/><path class="cls-3" d="M67,279.83a2.38,2.38,0,0,0,1.65.59l19.26,12.36L99.08,300v-5.1c-.45-.9-.85-1.83-1.28-2.75a19.19,19.19,0,0,0-2.8-4.47c-2.33-2.68-4.56-5.43-6.84-8.14-1.43-1.69-1.5-2.41.29-3.48,3.87-2.33,7-5.54,10.59-8.25l0,0v-2.39l-1.38,1.16q-8.64,7.38-17.61,14.33c-1.25,1-2.9,1.42-3.53,3.14-.12-.79-.17-.83.71-2.09.47-.67.4-.95-.31-1.33-2.36-1.27-4.62-2.73-7-3.86s-2-3.57-.59-4.88c.9-.88,1.91-1.65,2.87-2.48a1.51,1.51,0,0,1,2.47.21c.7.87,1.48,1.68,2.11,2.59s1,.42,1.6,0,.5-.83.09-1.33c-.74-.89-1.44-1.83-2.16-2.74a1.51,1.51,0,0,1,.2-2.38c1-.8,1.95-1.61,2.94-2.4a1.49,1.49,0,0,1,2.36.26c.82,1,1.69,2,2.49,3.06.4.51.71.56,1.21.12s.66-.69.19-1.23c-.76-.88-1.43-1.84-2.19-2.72a1.84,1.84,0,0,1-.09-2.77c-1.94,1.36-4.72,0-6.29,2.4l-.25-.38,1-1.34A9,9,0,0,1,73,257.28c-.41-.57-.71-.48-1.2-.09q-6.32,5.08-12.68,10.13c-.6.48-.59.83-.07,1.33a10.86,10.86,0,0,1,1,1.13,1.18,1.18,0,0,1-.06,1.76,1.22,1.22,0,0,1-1.87-.14c-.32-.33-.63-.66-.92-1s-.77-.93-1.48-.36c-.52.41-1,0-1.31-.36-.49-.58-.82-1.27-1.32-1.88-.77-.92.13-1.6.87-2.08,1-.62,1-1,0-1.65-7.47-4.82-14.76-9.95-22.46-14.42-1.83-1.06-4-1.58-5.76-2.82-.71-.49-.85.23-1.1.6-.41.63-.78,1.52-1.68,1.2a4.65,4.65,0,0,1-2.68-1.85c-.35-.63.37-1.2.7-1.74s.51-1.08-.28-1.43-.56-1.93-2-1.76c.14.38.7.67.25,1.19s-.56.08-.72-.05c-.38-.32-1.35-.41-1-1s.09-.9-.39-1.07c-.74-.25-1.31-1.51-2.17-.78-.2.16-.39.3-.59.43v27.35a103.2,103.2,0,0,1,5.92-8.8,13,13,0,0,0,1.14-1.61c.72-1.28,1.37-1.48,2.58-.72,1.5.94,3,1.86,4.49,2.84,6.13,4.06,12.87,6.92,19.55,9.9.39.17.84.76,1.22,0,1.07.58,2.15,1.14,3.21,1.75Q59.59,275.5,67,279.83Z"/><path class="cls-3" d="M20.72,56.72c.1.83-.16,1.19-1,1.27-1.89.18-3.78.4-5.67.64v1.59c5.6-.62,11.21-1.26,16.81-1.87,2.67-.3,5.34-.48,8-.81,1.09-.13,1.61,0,1.67,1.28.14,2.77.48,5.54.78,8.31.06.51-.35,1.37.9,1.21s.69-1,.65-1.44c-.3-3.64-.63-7.29-1-10.93H38.64c-1.78.1-3.56.29-5.34.53-.69.09-1-.07-1.21-.53H30.42c-.06.6-.42.92-1.41,1a47.08,47.08,0,0,0-5.41.59c-.8.12-1.22,0-1.28-.91,0-.21,0-.42-.05-.63H20.64C20.67,56.22,20.69,56.47,20.72,56.72Z"/><path class="cls-3" d="M23.8,57.07c1.65-.23,3.3-.44,5-.57.64,0,1-.21,1.18-.53H22.75a2.28,2.28,0,0,0,0,.26C22.82,57,23.08,57.17,23.8,57.07Z"/><path class="cls-3" d="M92.25,134.11c.6-.56.53-.87,0-1.43-1.77-1.86-4-3.09-6-4.6-.48-.36-.8-.22-1.17.16-1.37,1.41-2.76,2.8-4.15,4.2a1.09,1.09,0,0,0-.35.95c.41,3.39.81,6.78,1.24,10.49C85.46,140.46,88.83,137.26,92.25,134.11Z"/><path class="cls-3" d="M17.82,237.51a22.37,22.37,0,0,1,3.08,2.38c2.36,1.64,4.86,3.09,7.27,4.68.75.5,1.1.32,1.53-.38.81-1.34,1.69-2.64,2.55-3.95,1.27-2,1.27-2-.74-3.22-1.31-.81-1.41-1.36-.48-2.52,1.55-1.93,3.09-3.88,4.63-5.82.21-.27.42-.56.58-.78,0-.41-.27-.49-.47-.61-2.15-1.32-4.32-2.62-6.47-4-.5-.31-.77-.2-1.12.22q-5.2,6.52-10.45,13C17.44,236.93,17.26,237.24,17.82,237.51Z"/><path class="cls-3" d="M15.88,234.42c.83-.77.2-1.2-.28-1.71s-1-1.09-1.56-1.64v2.31l.49.51C14.82,234.2,15,235.2,15.88,234.42Z"/><path class="cls-3" d="M16.93,232.25c2.65-3.32,5.32-6.62,8-9.93.38-.46.44-.76-.31-.87-2.19-.33-4.39-.7-6.63-1a.92.92,0,0,0-.92.29l-3,2.92v6.82l1.71,1.8C16.17,232.69,16.47,232.82,16.93,232.25Z"/><path class="cls-3" d="M14.61,234.72,14,234.1v1.05a.84.84,0,0,0,.14.06C14.51,235.33,14.62,235.13,14.61,234.72Z"/><path class="cls-3" d="M24.24,169.68c.23-.61.16-1-.53-1.31-1.55-.63-3.09-1.28-4.6-2a1.13,1.13,0,0,0-1.72.6c-.47.9-1,1.75-1.43,2.67s-.82.93-1.59.43l-.33-.22v1.87l8.59,5a1.6,1.6,0,0,0-.86-2.4c-1.44-.73-2.81-1.62-4.21-2.42-.43-.24-.7-.43-.47-1,1-2.78,1.43-3,4.11-1.82.6.26,1.2.54,1.81.78C23.44,170,23.93,170.49,24.24,169.68Z"/><path class="cls-3" d="M14.91,116.84c-1.06.09-.62.77-.57,1.19.42,4,.88,7.94,1.33,11.91q1.8,15.83,3.62,31.66c.1.87-.11,1.13-1,1.24l-4.28.52V165c4.21-.52,8.42-1,12.63-1.49A2.42,2.42,0,0,0,29,161.64c-2.29.24-4.5.41-6.69.73-1,.15-1.3,0-1.41-1.06-.74-6.79-1.54-13.57-2.32-20.35q-1.32-11.53-2.64-23.07C15.86,117.26,15.86,116.76,14.91,116.84Z"/><path class="cls-3" d="M77.29,133.86c-.1-1.7-.7-1.92-2.19-1.72-5,.69-10.13,1.25-15.2,1.89-1.41.18-2.08-.38-2.17-1.79s-.25-2.82-.43-4.23c-.31-2.58-.32-2.51-2.86-2.3-1.13.1-1.62.43-1.29,1.42.76,6.59,1.51,13,2.22,19.45.1.94.49,1.15,1.37,1,6.81-.89,13.63-1.79,20.45-2.61,1.08-.12,1.34-.48,1.21-1.5C78,140.29,77.49,137.08,77.29,133.86Z"/><path class="cls-3" d="M98,72.66a1,1,0,0,0,1.12.81V72l-.2.05C98.51,72.11,97.78,72,98,72.66Z"/><path class="cls-3" d="M67.82,84.42c-1.24-.06-1.43.32-1.29,1.42.56,4.3,1,8.61,1.55,12.92a1.71,1.71,0,0,0,.55,1.2l5.52,4.93c-.64-5.6-1.27-11-1.85-16.32C71.87,84.57,71.9,84.62,67.82,84.42Z"/><path class="cls-3" d="M73.07,250.57c.78-.72,1.65-1.35,2.46-2,.22-.18.55-.29.55-.73-.12-.16-.26-.37-.42-.56-4.93-5.7-9.53-11.67-15-16.93-.77-.74-1.15-.61-1.77.09-1.1,1.24-2.24,2.47-3.46,3.61-.89.83-.92,1.28.2,1.95,3.85,2.31,7.67,4.72,10.7,8.13,1.81,2,3.54,4.15,5.26,6.26C72.11,251,72.45,251.14,73.07,250.57Z"/><path class="cls-3" d="M81.33,257.19a25,25,0,0,0,3-1.76c1.64-1.11,2.43-1,3.7.57q3.31,4.15,6.59,8.33c.43.55.75.81,1.43.23,1-.84,2-1.65,3-2.48V252a.94.94,0,0,1-.3-.4,1.3,1.3,0,0,1,.3-1.43v-4.69c-.39-.64-.77-.53-1.3-.09-1.61,1.3-3.26,2.55-4.89,3.84-1,.79-2.51,1.46-2.76,2.45s1.32,2,2.05,3c.52.72.92,1.46.11,2.13s-1.57.17-2.16-.58-1.2-1.5-1.8-2.25c-.29-.36-.53-.69-1.11-.33-.86.56-1.52.1-2.08-.58-.91-1.09-1.85-2.15-2.74-3.26-.39-.48-.68-.61-1.22-.16-1.77,1.51-3.59,3-5.39,4.44-.3.24-.62.42-.32,1C76.55,257.05,79.37,258.16,81.33,257.19Z"/><path class="cls-3" d="M88.24,277.37c-.95.39-.27.95.1,1.39,2.53,3,5,6.11,7.61,9.07A20.61,20.61,0,0,1,99,293.37c0,.05,0,.09.07.14v-25c-3,2.42-5.93,4.85-8.91,7.27A7.64,7.64,0,0,1,88.24,277.37ZM96,282.09c.47-.38.61.12.81.33.56.58,1.09,1.19,1.6,1.81.22.26.47.56.23.95s-.55.38-.88.12c-.69.25-.86.24-.65-.63.14-.58-.67-1.05-1.07-1.56C95.75,282.76,95.52,282.46,96,282.09Z"/><path class="cls-3" d="M83.16,125.72c-1.12-.91-2.22-1.83-3.68-3,.26,2.5.46,4.53.71,6.91,1.14-1.15,2-2.09,3-3C83.46,126.28,83.54,126,83.16,125.72Z"/><path class="cls-3" d="M18.93,220.05c2.23.46,4.49.74,6.73,1.11.72.11,1.27-.13,1.37-.84s-.61-.65-1.06-.72c-1.85-.31-3.69-.62-5.54-.9-2.57-.38-2.62-.37-2.89-2.88-.59-5.39-1.1-10.77-1.69-16.16-.1-1,.18-1.3,1.18-1.37,2.11-.17,4.22-.46,6.32-.75.5-.07,1.33.22,1.21-.86s-.87-.78-1.47-.72c-2.12.22-4.23.41-6.33.74-1,.15-1.19-.12-1.27-1-.36-4.24-.79-8.47-1.21-12.69,0-.37,0-.82-.24-1v17a1.52,1.52,0,0,1,.28,1c0,1.06.19,2.11.31,3.32.2.66,0,1-.59,1.17v1.64l.13,0c.51-.18.74.09.8.75.36,3.67.75,7.33,1.14,11a1.48,1.48,0,0,1-.5,1.34c-.53.5-1,1-1.57,1.52V223c.7-.69,1.39-1.38,2.07-2.09A2.75,2.75,0,0,1,18.93,220.05Z"/><path class="cls-3" d="M31.43,194.48c.3,0,.61-.07.91-.08.55,0,.84-.23.76-.83-.16-1.26-.3-2.51-.42-3.77-.06-.63-.35-.85-1-.8a36.88,36.88,0,0,1-3.78.24c-1.06,0-1.36.41-1.18,1.37.18,1.4-.12,3.28.67,4.06S30.05,194.63,31.43,194.48Z"/><path class="cls-3" d="M28,197l3.31-.43c2.59-.33,2.57-.33,2.76,2.28.09,1.24-.12,2.59.85,3.6,1.18,1.25,2.43,2.44,3.63,3.67.38.39.67.54,1.09,0s.59-.75.05-1.24c-.9-.82-1.68-1.77-2.61-2.55a3.87,3.87,0,0,1-1.37-2.87c-.39-4.48-.78-9-1.34-13.42-.2-1.64.55-1.78,1.81-1.88.68-.06,2,.27,1.87-.94s-1.38-.76-2.09-.63c-1.34.25-2.16.11-2-1.51,0-.09,0-.2,0-.3,0-.8-.57-.84-1.15-.82-.8,0-.51.62-.48,1,.13,1.56.28,3.12.49,4.67.11.81,0,1.21-1,1.23-1.51,0-3,.14-4.54.27-.51.05-1.31-.24-1.29.8s.66.94,1.35.86,1.41-.13,2.12-.19v-.08a21.69,21.69,0,0,0,2.42,0c.93-.1,1.25.25,1.29,1.16a29.71,29.71,0,0,0,.37,3.77c.15.89,0,1.27-1,1.34-1.56.11-3.11.36-4.67.54-.63.07-1.19.12-1.09,1S27.45,197.1,28,197Z"/><path class="cls-3" d="M21,169.48c-.46-.21-.94-.38-1.38-.62s-.88-.19-1.05.37c-.23.77-1.47,1.57-.76,2.18A26.69,26.69,0,0,0,22.07,174c.56.11.54-.28.63-.54C23.69,170.65,23.69,170.65,21,169.48Z"/><path class="cls-3" d="M18.79,161c-.36-2.3-.57-4.62-.83-6.93q-1.76-15.37-3.52-30.74c-.12-1-.26-2-.4-3v42.6l3.57-.41C18.65,162.36,19,162,18.79,161Z"/><path class="cls-3" d="M39.05,224.19q3.21-4.59,6.47-9.15c.38-.53.46-.91-.07-1.41-1.36-1.29-2.67-2.62-4-3.94-.37-.37-.66-.58-1.1-.07-3.13,3.56-6.27,7.11-9.48,10.75,2.37,1.44,4.62,2.78,6.84,4.18C38.37,225,38.67,224.74,39.05,224.19Z"/><path class="cls-3" d="M97.8,66.08A1.16,1.16,0,0,1,96.54,65c-.06-.35-.12-.7-.15-1C96,60.5,96,60.5,92.63,61.18l-.15,0c-.73,0-.92.39-.73,1.11a11,11,0,0,0,1.63,3.23C94.3,67,94.93,69,96.25,69.69a3.68,3.68,0,0,0,2.83-.19V60.17c-.61.16-.6.5-.46,1.17A23.49,23.49,0,0,1,99,64.8,1.15,1.15,0,0,1,97.8,66.08Z"/><path class="cls-3" d="M96.94,92.45c0,3.25-1.78,5.42-3.94,7.72-4.4,4.68-8.15,9.93-12.08,15l-1.58,2a3.46,3.46,0,0,0,0,4.53,27.47,27.47,0,0,0,4.1,3.6c.66.56.73.92.07,1.52-.94.85-1.74,1.85-2.69,2.68a2.42,2.42,0,0,0-.74,3.06c1.45-1.46,2.92-2.8,4.21-4.3.92-1.06,1.6-1.17,2.72-.27,1.88,1.52,4,2.71,5.72,4.49.69.72.71,1.07,0,1.75-3.5,3.22-6.92,6.53-10.43,9.74a2.08,2.08,0,0,0-.67,2.54c.63,0,.88-.5,1.22-.82,3.71-3.45,7.42-6.89,11.06-10.4.75-.71,1.23-.77,2-.1a33.89,33.89,0,0,0,2.79,2.1c.12.09.25.23.39.32v-2c-4.06-2.82-7.3-6.69-11.6-9.2-1-.56-.86-1-.36-1.91,1.42-2.48,3-4.8,5.55-6.23,2-1.12,3.08-3,4.2-4.87.54-.9,1.12-1.79,1.75-2.8a5.49,5.49,0,0,1,.46.76v-3.91A14.15,14.15,0,0,0,97.14,110c-1,1.55-2,3.15-3,4.76a4.17,4.17,0,0,1-1.68,1.62c-.88-1.6-.77-2.88.59-4.09a33.67,33.67,0,0,0,2.65-2.93c.41-.45.69-1,.12-1.44s-.94-.1-1.31.32c-1.34,1.51-2.65,3-4,4.54-.75.81-.36,1.66-.09,2.42.61,1.69.41,2.81-1.33,3.82-1.58.92-2.17,2.87-3.08,4.42-.7,1.2-1.19,1.16-2.09.28a43.46,43.46,0,0,1-3.67-3.39,1,1,0,0,1,0-1.54c4.68-6,9.23-12,14.16-17.82a2.22,2.22,0,0,1,.41-.45,7.37,7.37,0,0,0,3.57-6.57,1.55,1.55,0,0,1,.75-1.44V90.71L98,91.27C97.52,91.53,96.94,91.79,96.94,92.45Z"/><path class="cls-3" d="M28,202.32q.78,7.06,1.54,14.11c.51,0,.63-.31.81-.52,2.35-2.66,4.65-5.36,7.05-8,.84-.92,1.09-1.53,0-2.37-2.62-2-4.16-4.47-3.88-7.87,0-.64-.22-.9-.9-.8-1.4.21-2.8.39-4.21.53-.66.06-.87.3-.78,1C27.74,199.7,27.84,201,28,202.32Z"/><path class="cls-3" d="M77.55,148.27c-2.69.39-5.4.73-8.1,1.09l-4.29.56c3.51,3.64,7,7.22,10.43,10.81.46.48.77.24,1.12-.12l3-3c.29-.29.58-.55.41-1-.79-2.32-.75-4.77-1-7.17C78.94,148.29,78.51,148.13,77.55,148.27Z"/><path class="cls-3" d="M79.05,245.7c3.14-2.71,6.3-5.39,9.45-8.09.22-.19.53-.32.52-.79l-.49-.65c-.83-1-1.71-2-2.49-3.06-.54-.74-1-.79-1.69-.22q-4.91,3.69-9.64,7.61c-.57.47-.81.78-.22,1.43,1.09,1.19,2.14,2.43,3.12,3.71C78.14,246.33,78.5,246.17,79.05,245.7Z"/><path class="cls-3" d="M47.47,113.89c-2.86.39-5.73.64-8.6,1l-21.25,2.29c-.74.08-1.52.1-1.18,1.09.52,4.54,1,9,1.53,13.38,1.11,9.8,2.24,19.59,3.32,29.39.1.84.45,1,1.18.91,1.7-.22,3.41-.45,5.12-.57a2.4,2.4,0,0,0,2-1.13c1.8-2.56,3.67-5.08,5.48-7.64a7,7,0,0,1,5.15-3.1c3.67-.4,7.33-.89,11-1.18,1.51-.12,1.82-.63,1.63-2.05-.66-5.11-1.21-10.24-1.81-15.36s-1.28-10.43-1.85-15.65C49.05,114.05,48.63,113.74,47.47,113.89Z"/><path class="cls-3" d="M16.82,348.27c.7-.91,1.27-1.93,1.83-2.81,0-.59-.4-.68-.68-.84-1.33-.74-2.63-1.52-3.93-2.3v4.59L15.9,348C16.19,348.13,16.61,348.55,16.82,348.27Z"/><path class="cls-3" d="M22,291.16c.78-.51,1-.92.35-1.78-1-1.35-1.84-2.84-2.78-4.24-1.81-2.71-3.64-5.41-5.53-8.2v11c1.11,1.71,2.24,3.41,3.34,5.13.49.77.88.75,1.53.24C19.91,292.58,21,291.85,22,291.16Z"/><path class="cls-3" d="M91.16,58c.08-.68.12-1.36.15-2H89.62c-.11,1.42-.2,2.84-.22,4.26a9.35,9.35,0,0,0,1.44,5.19c2,3.15,4,6.32,6,9.53a7.82,7.82,0,0,1-4.12.65H91.21c-.55,0-1,.14-1,.83s.55.77,1.09.75c1.87,0,3.76.24,5.57-.42.83-.3,1.22-.05,1.72.65l.51.76V74c-1,.12-1.19-.33-2-2l2-.52V69.8L97,70.33c-.44.11-.93.38-1.23-.15-1.44-2.48-3.36-4.7-4.33-7.44-.61-1.7-.52-1.76,1.34-2l.15,0c3.68-.52,3.68-.52,4,3.3,0,.25,0,.51,0,.76.07.51.32.87.88.84s.73-.48.7-1a13.17,13.17,0,0,0-.47-3.75c-.25-.68-.15-1,.63-1.11l.4-.07V58q-3.3.56-6.57,1.17C91.46,59.34,91,59.19,91.16,58Z"/><path class="cls-3" d="M94.18,107.91c.57-.64,1.24-1,2-.38s.52,1.42-.1,2.11c-1,1.12-2,2.3-3,3.39-.75.77-.88,1.53,0,2.73,1.19-1.91,2.28-3.6,3.32-5.32a14.15,14.15,0,0,1,2.81-3.53V93.1a.89.89,0,0,0-.29.74A8,8,0,0,1,95,100.93a1.66,1.66,0,0,0-.3.34c-4.84,5.66-9.31,11.61-13.88,17.47a1,1,0,0,0,0,1.53c1,1.14,2.22,1.92,3.26,3,.76.77,1.13.54,1.65-.29.9-1.45,1.44-3.32,2.9-4.19,1.69-1,1.84-2.13,1.26-3.74a2.23,2.23,0,0,1,.25-2.55C91.52,111,92.84,109.43,94.18,107.91Z"/><path class="cls-3" d="M14.37,338.49c.27-.54.58-1.06.89-1.58,1.56-2.64,2.79-5.54,5.44-7.36,1.91-1.32,3.87-2.55,5.81-3.84.3-.21.78-.3.75-.84l-.47-.76c-1.74-2.67-3.52-5.31-5.19-8-.57-.91-1-.81-1.78-.31C17.91,317,16,318.23,14,319.43v19.51A1.28,1.28,0,0,0,14.37,338.49Z"/><path class="cls-3" d="M25.53,309c-.12-.18-.25-.39-.4-.6-.56-.78-1.18-1.52-1.66-2.35s-.92-1-1.82-.37c-2.52,1.75-5.07,3.46-7.61,5.17v5.62l10.86-6.82C25.15,309.49,25.46,309.39,25.53,309Z"/><path class="cls-3" d="M62.64,58.38a2.11,2.11,0,0,0,1.41,2c.7.27,1.37.66,2.07.94,1.79.71,2.73,0,2.54-2.3-.1-1-.2-2-.31-3H62.41C62.49,56.77,62.56,57.58,62.64,58.38Z"/><path class="cls-3" d="M99.08,345.23c-.94-1.16-1.9-2.31-2.81-3.5-.46-.6-.82-.48-1.37-.11q-8.49,5.75-17,11.42c-.56.37-.8.64-.34,1.29l.08.12h9.81l11.63-7.64Z"/><path class="cls-3" d="M25.6,304.71c2.33,3.27,2.33,3.27,5.65,1a.57.57,0,0,1,.13-.08c.57-.27.68-.59.31-1.18-2-3.17-3.89-6.37-5.83-9.55-.15-.24-.28-.55-.72-.48-.17.11-.39.24-.59.38-1,.73-2,1.5-3.1,2.17-.77.49-.88.87-.28,1.64C22.7,300.58,24.13,302.66,25.6,304.71Z"/><path class="cls-3" d="M77,354.23c-.34-.54-.61-.86-1.28-.38-.3.22-.41.41-.39.6h1.82Z"/><path class="cls-3" d="M35.19,297.64l.26-.15a1.53,1.53,0,0,1,2.25.45c.83,1.08,1.71,2.13,2.46,3.27Q45.62,309.58,51,318c.59.94,1,1,1.81.3,4.06-3.25,8.17-6.45,12.26-9.67l8.33-6.55-1.59-.86c-10.14-5.36-20.32-10.63-30.38-16.13-2-1.11-3.32-.91-4.88.49-.68.6-.68.89-.13,1.52,2.37,2.76,4.71,5.55,7,8.34,1.37,1.63,1.3,2-.55,3.53-1.51,1.25-1.88,1.21-3.21-.35q-3.59-4.22-7.19-8.41c-.26-.29-.44-1-1-.59-1,.73-2,1.54-3,2.34-.39.32,0,.66.13.94.69,1.18,1.39,2.35,2.09,3.52C32.37,299.14,32.37,299.14,35.19,297.64Z"/><path class="cls-3" d="M90,333.14c-.19.11-.41.23-.62.37q-8.4,5.69-16.8,11.37c-.58.39-.73.72-.3,1.33.86,1.25,1.66,2.53,2.46,3.82.32.51.61.72,1.2.32q8.52-5.76,17.09-11.48c.54-.36.59-.68.22-1.22-.89-1.29-1.72-2.62-2.58-3.92C90.54,333.48,90.42,333.18,90,333.14Z"/><path class="cls-3" d="M19.2,300.09c-.66-.93-1.09-.79-1.88-.23L14,302.19v5.61l4.37-3C21.28,302.91,21.23,302.94,19.2,300.09Z"/><path class="cls-3" d="M42.72,282.1q7.05,3.69,14.09,7.41c.28.15.65.53.9.06.47-.89.85-1.83,1.32-2.86-.08-.46-.58-.53-1-.7-3.36-1.52-6.73-3-10.09-4.55a3.55,3.55,0,0,1-1.29-.76c-.53-.56-.8-1.7-1.6-1.6s-1.29.9-1.93,1.4c-.2.15-.38.33-.59.47C41.84,281.46,42.06,281.76,42.72,282.1Z"/><path class="cls-3" d="M33.8,56H33A1.12,1.12,0,0,0,33.8,56Z"/><path class="cls-3" d="M72.13,59.82c.05.7.34,1,1.08.82a3.91,3.91,0,0,1,2.94.27,8.28,8.28,0,0,0,6.18.45,24.31,24.31,0,0,1,4.91-.93c1.46,0,2-.69,1.86-2.14A13,13,0,0,1,89.22,56H71.64c0,1.05.32,2.18.42,3.25C72.08,59.42,72.12,59.62,72.13,59.82Z"/><path class="cls-3" d="M98,57.82c.37-.09.73-.15,1.1-.23V56H96.44c.07.29.15.57.21.86C96.81,57.63,97,58.08,98,57.82Z"/><path class="cls-3" d="M91.68,57.82c0,.64.15,1,.74.85l2.94-.39c.7-.08.9-.38.76-1.11q-.11-.6-.24-1.2H91.72C91.71,56.59,91.7,57.21,91.68,57.82Z"/><path class="cls-3" d="M21.21,346.5c-.77.43-.9,1.31-1.4,1.91-.78.95-.65,1.5.5,2.14,2.32,1.28,4.62,2.59,6.91,3.9h8.29c-4.41-2.66-9-5-13.47-7.53C21.78,346.77,21.5,346.64,21.21,346.5Z"/><path class="cls-3" d="M92.06,354.45h7v-4.6Z"/><path class="cls-3" d="M32.58,289.56c2.55,3,5.14,6,7.65,9,.85,1,1.53.91,2.37.08s2-1.24.79-2.64c-2.59-3-5.1-6-7.65-9-.22-.25-.36-.63-.88-.66a3.93,3.93,0,0,0-.85.74c-.26.39.2.62.4.86,2.31,2.75,4.65,5.48,7,8.24.23.28,1,.59.33,1.06s-.66-.28-.89-.54c-2.34-2.72-4.68-5.44-7-8.19-.45-.54-.77-.83-1.45-.26S32.28,289.2,32.58,289.56Z"/><path class="cls-3" d="M25.23,287.52c.42.67.73.79,1.39.26,1.64-1.35,3.33-2.62,5-3.93.27-.21.64-.35.63-.81-.06-.12-.12-.25-.2-.38-1.44-2.13-2.9-4.26-4.31-6.41-.44-.66-.81-.36-1.24-.06-1.7,1.19-3.38,2.39-5.11,3.53-.65.43-.74.78-.28,1.44C22.52,283.25,23.89,285.38,25.23,287.52Z"/><path class="cls-3" d="M15.43,294.69,14,292.57v4.22l1.25-.89C15.9,295.47,15.74,295.17,15.43,294.69Z"/><path class="cls-3" d="M17.54,294.86c.46-.54-.15-.93-.4-1.31L14,288.76v3c.64,1,1.29,2,1.92,3S17,295.45,17.54,294.86Z"/><path class="cls-3" d="M46.57,271.91c-2.48-1.19-4.78-2.21-7-3.39-1.25-.66-2.17-.79-3,.6a3.74,3.74,0,0,1-1.24,1.08c-1.71,1.17-3.43,2.33-5.16,3.45-.57.37-.78.66-.33,1.31q2.09,3,4.08,6c.4.62.68.5,1.16.11,1.13-.93,2.31-1.8,3.46-2.71Z"/><path class="cls-3" d="M95.68,146.76c-.64.57-.5.91,0,1.42,1,1,2,2,3,3a2.77,2.77,0,0,0,.4.38v-8.05A45,45,0,0,1,95.68,146.76Z"/><path class="cls-3" d="M97.75,112.89a17.66,17.66,0,0,1-7,7.41c-1.65.92-2.06,2.93-3.18,4.35-.54.69-.36,1.11.34,1.55a46.85,46.85,0,0,1,7.57,6,42.86,42.86,0,0,0,3.57,2.81V118.42c-.35.28-.88.44-.92.94-.18,2.59-2.32,4-3.49,6-.15-.72-.61-1.3.52-1.89s1.7-2.19,2.32-3.46a.78.78,0,0,0-.22-.83c-1.29-1.51-1.23-1.45.18-2.78.75-.7,1.27-1.15,1.61-1.49v-2.25c-.15-.3-.31-.64-.5-1.08C98.24,112.13,98,112.49,97.75,112.89Z"/><path class="cls-3" d="M99.08,241V234.7l-.29.23c-3.37,2.65-3.36,2.63-.41,5.69C98.65,240.9,98.86,241,99.08,241Z"/><path class="cls-3" d="M92,196.88a5.59,5.59,0,0,0-.52.4c-1.31,1.33-2.6,2.67-3.93,4-.49.48-.16.79.13,1.15q5.58,7,11.15,14a1.89,1.89,0,0,0,.23.25v-11q-3.35-3.93-6.56-8C92.34,197.36,92.18,197.11,92,196.88Z"/><path class="cls-3" d="M94.27,194.42c-.46.46-.42.78,0,1.27,1.59,2,3.21,4,4.84,5.91V190.44c-.34-.31-.61-.29-1,.09C96.84,191.85,95.57,193.15,94.27,194.42Z"/><path class="cls-3" d="M96.81,136.53c-.4-.31-.84-.58-1.21-.92-.52-.5-.89-.37-1.38.09q-5.67,5.37-11.38,10.69a1.44,1.44,0,0,0-.6,1.3c.27,2.13.49,4.27.72,6.39.51,0,.66-.27.86-.47q6.14-5.87,12.24-11.75a11.39,11.39,0,0,0,1.29-1.49C99,138.15,99,138.15,96.81,136.53Z"/><path class="cls-3" d="M40.34,178.85a26.39,26.39,0,0,1,5.51,4.23c.52.57.84.48,1.3-.08q7.6-9,15.25-18.08c.19-.22.35-.47.55-.74-.3-.33-.56-.64-.84-.92-3.45-3.49-6.92-6.95-10.32-10.48-.77-.8-1.1-.75-1.78.09q-7.09,8.79-14.32,17.47c-.87,1-.75,1.58.09,2.58,1.47,1.77,3.82,2.92,4.09,5.58C39.88,178.64,40.17,178.75,40.34,178.85Z"/><path class="cls-3" d="M36.93,184.66l-1.36.1c-.55,0-.86.28-.72,1,.38,3.9.95,7.87,1.08,11.85a7.36,7.36,0,0,0,3,6,2.5,2.5,0,0,1,.43.43c.43.55.77.63,1.26,0q4.38-5.72,8.83-11.39c.33-.42.4-.74,0-1.15-3.28-3.14-6.08-6.78-10-9.28a8.88,8.88,0,0,0-4.23-1.47c-.39,0-.87-.13-.83.53s0,1.08.78,1c.5,0,1-.09,1.51-.17.91-.15,1.72,0,1.86,1S37.88,184.57,36.93,184.66Z"/><path class="cls-3" d="M71.71,161.65c-.36-.35-.75-.67-1.08-1.06s-.74-.48-1.18,0c-3,3.55-6.05,7.06-9.07,10.6-.25.29-.64.56-.2,1,1,1,2.08,2.06,3.13,3.09a2.1,2.1,0,0,0,.41.25l.7-.81q3.77-4.46,7.55-8.9C73.82,163.69,73.82,163.69,71.71,161.65Z"/><path class="cls-3" d="M75.48,166.89q-4.37,5.22-8.81,10.39c-.52.62-.46,1,.09,1.49,1.08,1,2.15,2,3.13,3.09.64.71,1,.68,1.59-.08,2.68-3.41,5.44-6.77,8.17-10.14.22-.27.42-.56.59-.77.05-.45-.23-.63-.43-.85-1-1.08-2-2.12-3-3.24C76.27,166.1,76,166.32,75.48,166.89Z"/><path class="cls-3" d="M95.23,148.35c-.38-.37-.64-1.3-1.51-.49s.06,1.21.45,1.64c1.12,1.23,2.27,2.45,3.5,3.57.76.7.67,1.1,0,1.76q-7.06,6.57-14,13.22c-.33.32-1.09.53-.56,1.31s1.06.46,1.63-.08q6.77-6.42,13.57-12.83c.22-.2.44-.42.67-.62l.18-.17v-3.42a2.13,2.13,0,0,1-.22-.21C97.69,150.76,96.48,149.54,95.23,148.35Z"/><path class="cls-3" d="M15.86,195.09c.09,1,.52,1.23,1.45,1.1,1.74-.25,3.5-.44,5.26-.6.92-.09,1.45-.39,1.22-1.16-.42-4.23-.84-8.2-1.18-12.17-.08-.9-.39-1.07-1.22-.95-1.89.29-3.8.5-5.71.73-.7.08-1,.3-1,1.14C15.15,187.15,15.53,191.11,15.86,195.09Z"/><path class="cls-3" d="M97,118.47c.35.45.78.29,1.2,0s.57-.43.84-.66v-2.3c-.59.56-1.18,1.11-1.78,1.65C96.86,117.55,96.65,118,97,118.47Z"/><path class="cls-3" d="M96.36,163.19c-.16.15-.35.31-.53.49-.69.67-1.33,1.39-2.07,2s-.71,1.08,0,1.76c1.79,1.76,3.56,3.54,5.33,5.32v-7l-2-2C96.92,163.49,96.76,163.2,96.36,163.19Z"/><path class="cls-3" d="M99.08,220.91c-.25,0-.48.15-.72.33-2.55,2-5.31,3.7-7.57,6-1.12,1.15-3.28,2.07-3.19,3.39s1.87,2.61,2.91,3.9l.09.12c.36.58.7.52,1.21.12q3.63-2.91,7.27-5.78Z"/><path class="cls-3" d="M86,250.09c.5.56.8.71,1.43.2,2.92-2.34,5.87-4.62,8.81-6.94.21-.17.56-.27.51-.76-.77-.9-1.62-1.83-2.38-2.83-.49-.65-.83-.62-1.41-.11-2.2,1.93-4.44,3.82-6.68,5.71C83.68,247.54,83.69,247.51,86,250.09Z"/><path class="cls-3" d="M99.08,162.11V160.5C98.52,161,98.49,161.46,99.08,162.11Z"/><path class="cls-3" d="M46.8,211.44c.63.68,1,.56,1.45-.14,1.84-2.53,3.76-5,5.6-7.53,1.09-1.49,3.19-3,2.95-4.51s-2.31-2.9-3.58-4.33a3.26,3.26,0,0,0-.31-.33c-.11-.09-.25-.16-.43-.28-.18.19-.35.35-.5.54-3,3.87-6,7.74-9,11.58-.49.63-.26.94.19,1.37C44.39,209,45.63,210.19,46.8,211.44Z"/><path class="cls-3" d="M83.92,175.88c-1,1.18-1.91,2.35-2.92,3.48a.86.86,0,0,0,0,1.39q5.22,5.79,10.4,11.64c.5.56.81.56,1.31,0,1.18-1.25,2.4-2.46,3.6-3.68.18-.18.33-.37.53-.59a9.11,9.11,0,0,0-.59-.72c-3.69-3.88-7.41-7.73-11.08-11.63C84.63,175.18,84.34,175.35,83.92,175.88Z"/><path class="cls-3" d="M86.7,172.13c1.23-1.27,2.51-2.5,3.72-3.79.49-.53.81-.56,1.33,0q3.65,3.69,7.33,7.36v-2.26c-2-2-4-4-6-6-.68-.67-.83-1.09,0-1.77,1-.81,1.82-1.74,2.73-2.62.21-.2.44-.37.91-.75a5.19,5.19,0,0,0,.5.83l1.85,1.92v-2.29l-.56-.58c-.66-.68-.81-1.12,0-1.78.19-.16.38-.34.56-.52v-2.24c-2.7,2.6-5.41,5.2-8.09,7.82-1.84,1.81-3.6,3.69-5.45,5.49-.51.51-.35.8,0,1.23S86.32,172.52,86.7,172.13Z"/><path class="cls-3" d="M99.08,185.43v-9.09c-2.47-2.49-5-5-7.41-7.47-.4-.39-.69-.46-1.12,0-1,1.1-2.1,2.19-3.2,3.23-.51.48-.39.77,0,1.21q5.69,5.89,11.32,11.84A1.3,1.3,0,0,0,99.08,185.43Z"/><path class="cls-3" d="M14.06,202.41c0-.09,0-.17,0-.25v1.61C14.3,203.48,14.35,203.07,14.06,202.41Z"/><path class="cls-3" d="M15.57,217.34c-.34-3.39-.68-6.61-1-9.82,0-.58-.24-.82-.58-.89V220.1l.6-.57C15.37,218.86,15.85,218.19,15.57,217.34Z"/><path class="cls-3" d="M23.14,198.06c-2,.22-3.9.46-5.81.63-.79.07-1,.4-.95,1.17.59,5.69,1.14,11.37,1.69,17,.07.63.29,1,1,1.12,2.1.31,4.19.65,6.29,1,.74.12,1.1,0,1-.91-.72-6.33-1.39-12.67-2-19C24.2,198.32,24,197.83,23.14,198.06Z"/><path class="cls-3" d="M31.56,180.76c-.94-1-2.77.06-4.21,0-.2,0-.41,0-.61,0-.62,0-.93.21-.84.89.17,1.4.33,2.81.43,4.22.05.82.44,1,1.17.9,1.21-.12,2.42-.23,3.63-.23.93,0,1.33-.32,1.14-1.28C31.8,183.77,32.55,181.79,31.56,180.76Z"/><path class="cls-3" d="M62.27,351.4l-.36-.66c-.8-1.36-1.57-2.72-2.39-4.05-2.15-3.5-2.15-3.47-5.61-1.16-.7.47-.84.8-.36,1.53,1.39,2.11,2.7,4.27,4.05,6.41.13.21.29.59.43.59,1.4,0,2.25-1.17,3.39-1.74C61.78,352.15,62.32,352,62.27,351.4Z"/><path class="cls-3" d="M46.22,347.91c.71-.49,1.34-1.1,2.07-1.53,1.06-.6,1.2-1.15.44-2.21-1.62-2.27-1.56-2.32-4-.79q-1.92,1.22-3.8,2.48a12.07,12.07,0,0,0-3.49,3.73c-1.38,2.23-1.38,2.23.8,3.62l2,1.24h.33c.38-.17.48-.53.61-.81A13.32,13.32,0,0,1,46.22,347.91Z"/><path class="cls-3" d="M59.36,180.74c.87-1,2.5-2,2.34-3.16s-1.79-1.93-2.69-3c-.65-.75-1-.64-1.61.08-2.14,2.62-4.37,5.18-6.52,7.79-.82,1-2.39,2-2.25,3.05s1.62,1.94,2.51,2.89c.28.29.58.54.93.87.28-.31.52-.55.74-.81C55,185.91,57.2,183.34,59.36,180.74Z"/><path class="cls-3" d="M14,165.48v3.85l.14.09c.76.51,1.22.52,1.6-.39.28-.65.7-1.23,1-1.88.6-1.38,1.47-1.77,2.88-1.05,1.21.63,2.49,1.1,3.74,1.65.42.18.81.41,1.16-.15.71-1.14,1.46-2.26,2.25-3.47a3.25,3.25,0,0,0-.6-.08Z"/><path class="cls-3" d="M58.74,197.2c3.32-4,6.55-8,9.81-11.89.47-.56.42-.9-.09-1.37q-1.72-1.6-3.35-3.3c-.52-.54-.83-.51-1.31.06q-4.53,5.4-9.11,10.76c-.37.43-.55.76-.06,1.27C56,194.19,57.36,195.69,58.74,197.2Z"/><path class="cls-3" d="M22.2,177.5c.09-.43-.23-.61-.55-.8l-5.76-3.34L14,172.27v6.59c2.53-.31,5-.62,7.44-.94C21.77,177.89,22.13,177.88,22.2,177.5Z"/><path class="cls-3" d="M27.19,169.73a35.53,35.53,0,0,0-1.59,6.76c-.1.73.22,1,.94.93a80.27,80.27,0,0,1,9.73-.34c-2.42-2.56-4.89-5.08-7.23-7.72C28,168.22,27.52,168.75,27.19,169.73Z"/><path class="cls-3" d="M63.87,354.05a.46.46,0,0,0-.4,0,6.73,6.73,0,0,1-.63.4h1.31C64.05,354.32,64,354.19,63.87,354.05Z"/><path class="cls-3" d="M63.18,353.66c.51-.25.81-.51.4-1.15s-.68-.58-1.21-.23c-1.13.75-2.32,1.42-3.45,2.17h2.74a11.51,11.51,0,0,1,1.27-.62A2.2,2.2,0,0,0,63.18,353.66Z"/><path class="cls-3" d="M99.08,349.29v-1.91c-3.6,2.34-7.18,4.71-10.77,7.07h2.91Z"/></g></g></g></svg>