<svg xmlns="http://www.w3.org/2000/svg" viewBox="0 0 82.03 83.77"><g id="レイヤー_2" data-name="レイヤー 2"><g id="レイヤー_4" data-name="レイヤー 4"><g id="レイヤー_3" data-name="レイヤー 3"><path d="M16.28,83c4.08-.68,7.91-1.18,11.69-2A59.16,59.16,0,0,0,50,71.8c.8-.56,2.23-.94,2-2.06-.2-.92-1.62-.74-2.51-.92C37.77,66.37,26.61,62.62,16.58,56A41.1,41.1,0,0,1,3.65,43.29C1.51,39.79-.12,36,0,31.91a21.65,21.65,0,0,1,4.63-12.6c4.71-6.15,11.07-10,18.06-12.93C35.79,1,49.54-.42,63.56.1a7.33,7.33,0,0,1,1.3.21c.2,0,.38.18.64.52-13,1.53-25.44,4.73-36.44,13.37,2.85.64,5.17,1.11,7.48,1.67,12,2.9,23.32,7.2,33.06,15,5.62,4.48,10,9.87,11.91,17,1.15,4.26.29,8.17-1.42,12C76.42,67.89,69.62,72.72,61.88,76.3c-13.8,6.39-28.48,7.92-43.49,7.36a5.7,5.7,0,0,1-1.3-.22A4,4,0,0,1,16.28,83Zm2.61-49.46a22.29,22.29,0,0,0,4.94,14.28C31.14,57.49,41.28,63,52.48,67c2.13.76,3.36.12,4.7-1.45,7.73-9.1,8.23-19.83,1.06-29.43C50.64,25.92,40,20.27,28.15,16.42a2,2,0,0,0-2.31.76C21.72,21.79,18.64,26.83,18.89,33.51Z"/><path d="M37.64,43.7A13.47,13.47,0,0,1,24.26,31.55c-.24-2.82.29-3.27,3-2.5.28.08.57.15.85.24,2.65.76,2.69.74,2.72-2,0-.36,0-.73,0-1.09.07-2.3.62-2.67,2.86-1.93a13.47,13.47,0,0,1,8.69,11.92A14.52,14.52,0,0,1,42,40.3C41.17,43.46,40.82,43.75,37.64,43.7Z"/></g></g></g></svg>